<?xml version="1.0" encoding="UTF-8"?>
<svg xmlns="http://www.w3.org/2000/svg" version="1.1" width="300" height="300" viewBox="0 0 300 300"><rect x="0" y="0" width="300" height="300" fill="#fefefe"/><g transform="scale(8.108)"><g transform="translate(4.000,4.000)"><path fill-rule="evenodd" d="M8 0L8 1L9 1L9 2L10 2L10 3L11 3L11 1L14 1L14 0L11 0L11 1L9 1L9 0ZM15 0L15 1L16 1L16 0ZM17 0L17 2L16 2L16 4L15 4L15 5L12 5L12 4L13 4L13 3L14 3L14 2L12 2L12 4L11 4L11 5L10 5L10 4L9 4L9 5L10 5L10 8L9 8L9 6L8 6L8 8L9 8L9 9L7 9L7 8L6 8L6 9L7 9L7 10L6 10L6 11L7 11L7 12L5 12L5 11L4 11L4 12L3 12L3 13L2 13L2 14L1 14L1 12L2 12L2 11L3 11L3 10L4 10L4 9L5 9L5 8L3 8L3 10L2 10L2 11L1 11L1 10L0 10L0 14L1 14L1 15L0 15L0 16L2 16L2 18L1 18L1 17L0 17L0 21L2 21L2 20L3 20L3 21L4 21L4 20L5 20L5 21L7 21L7 20L6 20L6 19L8 19L8 18L6 18L6 17L7 17L7 16L6 16L6 17L5 17L5 18L4 18L4 16L5 16L5 14L6 14L6 15L11 15L11 16L12 16L12 15L13 15L13 14L14 14L14 13L16 13L16 14L15 14L15 15L16 15L16 17L15 17L15 16L14 16L14 17L10 17L10 16L8 16L8 17L10 17L10 18L11 18L11 19L10 19L10 20L11 20L11 19L12 19L12 21L14 21L14 24L13 24L13 25L12 25L12 26L13 26L13 25L16 25L16 26L14 26L14 27L12 27L12 28L11 28L11 29L13 29L13 28L15 28L15 29L16 29L16 28L17 28L17 29L18 29L18 28L17 28L17 27L19 27L19 28L20 28L20 29L21 29L21 28L23 28L23 29L24 29L24 28L25 28L25 29L26 29L26 28L27 28L27 27L28 27L28 28L29 28L29 25L28 25L28 24L29 24L29 23L28 23L28 24L26 24L26 23L25 23L25 20L26 20L26 22L27 22L27 21L28 21L28 22L29 22L29 16L28 16L28 15L29 15L29 12L28 12L28 9L29 9L29 8L28 8L28 9L27 9L27 10L25 10L25 9L24 9L24 10L22 10L22 9L23 9L23 8L22 8L22 9L21 9L21 5L20 5L20 4L21 4L21 1L19 1L19 2L20 2L20 3L19 3L19 4L18 4L18 3L17 3L17 2L18 2L18 0ZM11 5L11 7L12 7L12 9L10 9L10 10L8 10L8 11L10 11L10 10L12 10L12 11L13 11L13 13L11 13L11 12L10 12L10 14L13 14L13 13L14 13L14 12L15 12L15 9L14 9L14 8L13 8L13 7L14 7L14 6L13 6L13 7L12 7L12 5ZM15 5L15 8L16 8L16 5ZM17 5L17 8L18 8L18 10L19 10L19 11L18 11L18 13L17 13L17 14L16 14L16 15L17 15L17 16L18 16L18 17L17 17L17 18L16 18L16 19L15 19L15 17L14 17L14 18L12 18L12 19L13 19L13 20L14 20L14 19L15 19L15 20L16 20L16 22L17 22L17 23L20 23L20 19L17 19L17 18L19 18L19 17L20 17L20 18L21 18L21 20L22 20L22 18L23 18L23 19L24 19L24 17L25 17L25 18L26 18L26 19L27 19L27 20L28 20L28 16L27 16L27 17L26 17L26 16L24 16L24 17L23 17L23 16L22 16L22 15L24 15L24 14L23 14L23 13L22 13L22 12L21 12L21 9L19 9L19 8L18 8L18 5ZM19 5L19 7L20 7L20 5ZM0 8L0 9L2 9L2 8ZM12 9L12 10L13 10L13 11L14 11L14 10L13 10L13 9ZM16 9L16 12L17 12L17 9ZM23 11L23 12L25 12L25 11ZM26 11L26 12L27 12L27 11ZM7 12L7 13L6 13L6 14L7 14L7 13L8 13L8 14L9 14L9 13L8 13L8 12ZM20 12L20 13L18 13L18 15L20 15L20 16L21 16L21 18L22 18L22 16L21 16L21 15L22 15L22 13L21 13L21 12ZM4 13L4 14L5 14L5 13ZM20 13L20 15L21 15L21 13ZM25 13L25 14L27 14L27 13ZM2 15L2 16L3 16L3 15ZM3 18L3 20L4 20L4 18ZM5 18L5 19L6 19L6 18ZM8 20L8 22L10 22L10 23L9 23L9 24L8 24L8 26L9 26L9 27L8 27L8 29L9 29L9 28L10 28L10 27L11 27L11 26L9 26L9 25L10 25L10 24L11 24L11 21L9 21L9 20ZM17 21L17 22L19 22L19 21ZM21 21L21 24L24 24L24 21ZM12 22L12 23L13 23L13 22ZM22 22L22 23L23 23L23 22ZM15 23L15 24L16 24L16 23ZM17 24L17 25L19 25L19 27L20 27L20 28L21 28L21 27L23 27L23 25L19 25L19 24ZM26 25L26 26L28 26L28 25ZM16 26L16 27L15 27L15 28L16 28L16 27L17 27L17 26ZM0 0L0 7L7 7L7 0ZM1 1L1 6L6 6L6 1ZM2 2L2 5L5 5L5 2ZM29 0L22 0L22 7L29 7ZM28 1L23 1L23 6L28 6ZM27 2L24 2L24 5L27 5ZM0 29L7 29L7 22L0 22ZM1 28L6 28L6 23L1 23ZM2 27L5 27L5 24L2 24Z" fill="#000000"/></g></g></svg>
