<?xml version="1.0" encoding="UTF-8"?>
<svg xmlns="http://www.w3.org/2000/svg" version="1.1" width="300" height="300" viewBox="0 0 300 300"><rect x="0" y="0" width="300" height="300" fill="#fefefe"/><g transform="scale(8.108)"><g transform="translate(4.000,4.000)"><path fill-rule="evenodd" d="M9 0L9 1L8 1L8 3L9 3L9 4L8 4L8 8L6 8L6 9L8 9L8 8L10 8L10 10L9 10L9 11L8 11L8 10L5 10L5 9L4 9L4 8L3 8L3 9L2 9L2 8L0 8L0 11L1 11L1 12L0 12L0 13L1 13L1 12L3 12L3 13L2 13L2 15L5 15L5 18L3 18L3 16L2 16L2 19L3 19L3 21L8 21L8 23L9 23L9 25L8 25L8 26L9 26L9 25L10 25L10 26L11 26L11 27L10 27L10 28L9 28L9 27L8 27L8 29L11 29L11 28L12 28L12 29L14 29L14 28L12 28L12 24L14 24L14 25L13 25L13 27L15 27L15 28L16 28L16 29L18 29L18 28L20 28L20 29L24 29L24 28L25 28L25 29L26 29L26 28L25 28L25 26L26 26L26 25L27 25L27 26L28 26L28 27L27 27L27 29L28 29L28 27L29 27L29 26L28 26L28 25L27 25L27 24L28 24L28 22L25 22L25 21L27 21L27 20L28 20L28 21L29 21L29 17L27 17L27 16L25 16L25 18L24 18L24 15L23 15L23 14L22 14L22 13L23 13L23 12L24 12L24 13L26 13L26 14L27 14L27 15L28 15L28 16L29 16L29 13L26 13L26 12L27 12L27 11L28 11L28 10L29 10L29 9L28 9L28 8L26 8L26 9L28 9L28 10L25 10L25 11L23 11L23 12L22 12L22 10L23 10L23 9L25 9L25 8L22 8L22 9L20 9L20 10L19 10L19 11L18 11L18 12L19 12L19 13L17 13L17 12L16 12L16 11L17 11L17 10L18 10L18 7L19 7L19 6L20 6L20 8L21 8L21 6L20 6L20 4L19 4L19 3L21 3L21 0L19 0L19 1L20 1L20 2L17 2L17 0L15 0L15 1L14 1L14 3L13 3L13 0L12 0L12 1L11 1L11 2L9 2L9 1L10 1L10 0ZM15 2L15 4L18 4L18 3L17 3L17 2ZM12 3L12 4L9 4L9 5L10 5L10 6L9 6L9 7L10 7L10 8L11 8L11 9L12 9L12 10L11 10L11 11L9 11L9 13L8 13L8 14L7 14L7 13L6 13L6 12L7 12L7 11L4 11L4 9L3 9L3 10L1 10L1 11L3 11L3 12L4 12L4 13L3 13L3 14L5 14L5 15L6 15L6 16L7 16L7 15L11 15L11 16L12 16L12 17L10 17L10 16L9 16L9 18L8 18L8 17L6 17L6 18L7 18L7 19L6 19L6 20L7 20L7 19L8 19L8 20L9 20L9 21L11 21L11 19L12 19L12 20L13 20L13 21L14 21L14 22L15 22L15 23L14 23L14 24L16 24L16 26L15 26L15 27L16 27L16 28L17 28L17 27L16 27L16 26L20 26L20 27L21 27L21 28L22 28L22 27L23 27L23 28L24 28L24 27L23 27L23 26L24 26L24 25L23 25L23 26L22 26L22 25L21 25L21 26L20 26L20 22L19 22L19 21L20 21L20 20L21 20L21 19L22 19L22 20L23 20L23 15L21 15L21 12L20 12L20 14L19 14L19 15L18 15L18 16L19 16L19 17L20 17L20 18L19 18L19 20L17 20L17 19L16 19L16 18L18 18L18 17L15 17L15 18L14 18L14 17L13 17L13 16L12 16L12 14L9 14L9 13L12 13L12 12L13 12L13 15L16 15L16 16L17 16L17 15L16 15L16 14L17 14L17 13L15 13L15 12L13 12L13 8L14 8L14 9L15 9L15 8L14 8L14 6L15 6L15 7L16 7L16 8L17 8L17 7L18 7L18 6L19 6L19 5L16 5L16 6L15 6L15 5L14 5L14 4L13 4L13 3ZM11 5L11 6L10 6L10 7L11 7L11 6L12 6L12 8L13 8L13 6L12 6L12 5ZM16 6L16 7L17 7L17 6ZM14 10L14 11L16 11L16 10ZM5 13L5 14L6 14L6 15L7 15L7 14L6 14L6 13ZM0 15L0 16L1 16L1 15ZM20 15L20 17L21 17L21 18L22 18L22 16L21 16L21 15ZM26 17L26 18L25 18L25 19L26 19L26 20L27 20L27 19L26 19L26 18L27 18L27 17ZM0 18L0 19L1 19L1 18ZM13 18L13 20L14 20L14 21L15 21L15 22L17 22L17 23L19 23L19 22L17 22L17 21L15 21L15 20L16 20L16 19L15 19L15 20L14 20L14 18ZM4 19L4 20L5 20L5 19ZM9 19L9 20L10 20L10 19ZM0 20L0 21L1 21L1 20ZM21 21L21 24L24 24L24 21ZM9 22L9 23L10 23L10 22ZM22 22L22 23L23 23L23 22ZM25 23L25 24L26 24L26 23ZM10 24L10 25L11 25L11 24ZM0 0L0 7L7 7L7 0ZM1 1L1 6L6 6L6 1ZM2 2L2 5L5 5L5 2ZM29 0L22 0L22 7L29 7ZM28 1L23 1L23 6L28 6ZM27 2L24 2L24 5L27 5ZM0 29L7 29L7 22L0 22ZM1 28L6 28L6 23L1 23ZM2 27L5 27L5 24L2 24Z" fill="#000000"/></g></g></svg>
