<?xml version="1.0" encoding="UTF-8"?>
<svg xmlns="http://www.w3.org/2000/svg" version="1.1" width="300" height="300" viewBox="0 0 300 300"><rect x="0" y="0" width="300" height="300" fill="#fefefe"/><g transform="scale(8.108)"><g transform="translate(4.000,4.000)"><path fill-rule="evenodd" d="M8 0L8 1L9 1L9 2L8 2L8 5L9 5L9 4L11 4L11 5L10 5L10 10L9 10L9 8L8 8L8 10L6 10L6 9L7 9L7 8L6 8L6 9L4 9L4 8L0 8L0 12L1 12L1 13L3 13L3 12L4 12L4 14L3 14L3 15L2 15L2 14L0 14L0 15L1 15L1 16L0 16L0 17L1 17L1 18L0 18L0 19L1 19L1 18L2 18L2 20L1 20L1 21L2 21L2 20L4 20L4 19L11 19L11 20L9 20L9 21L8 21L8 20L5 20L5 21L8 21L8 22L9 22L9 25L8 25L8 29L9 29L9 26L10 26L10 27L11 27L11 26L12 26L12 28L10 28L10 29L12 29L12 28L14 28L14 27L15 27L15 26L14 26L14 25L13 25L13 26L12 26L12 24L15 24L15 25L16 25L16 26L18 26L18 28L17 28L17 29L23 29L23 28L24 28L24 29L25 29L25 28L26 28L26 29L28 29L28 27L29 27L29 23L28 23L28 21L27 21L27 20L28 20L28 19L26 19L26 17L27 17L27 18L29 18L29 17L28 17L28 16L29 16L29 11L28 11L28 10L29 10L29 8L28 8L28 10L26 10L26 9L27 9L27 8L24 8L24 9L22 9L22 8L21 8L21 5L20 5L20 2L19 2L19 1L18 1L18 2L19 2L19 5L18 5L18 7L17 7L17 6L16 6L16 7L15 7L15 6L14 6L14 10L13 10L13 6L12 6L12 5L14 5L14 4L15 4L15 5L17 5L17 4L18 4L18 3L17 3L17 4L16 4L16 2L17 2L17 0L16 0L16 2L15 2L15 3L14 3L14 0L12 0L12 1L11 1L11 0L10 0L10 1L9 1L9 0ZM20 0L20 1L21 1L21 0ZM11 2L11 4L12 4L12 3L13 3L13 4L14 4L14 3L13 3L13 2ZM8 6L8 7L9 7L9 6ZM11 6L11 8L12 8L12 6ZM19 6L19 7L20 7L20 6ZM15 8L15 11L16 11L16 13L17 13L17 14L18 14L18 15L16 15L16 14L15 14L15 15L16 15L16 17L14 17L14 15L13 15L13 14L14 14L14 12L13 12L13 11L11 11L11 13L10 13L10 15L5 15L5 14L8 14L8 13L5 13L5 14L4 14L4 15L5 15L5 16L4 16L4 18L5 18L5 17L6 17L6 18L11 18L11 19L12 19L12 20L11 20L11 22L10 22L10 21L9 21L9 22L10 22L10 23L14 23L14 22L15 22L15 24L16 24L16 25L18 25L18 26L19 26L19 25L20 25L20 27L19 27L19 28L20 28L20 27L21 27L21 28L22 28L22 26L24 26L24 27L25 27L25 26L26 26L26 28L27 28L27 27L28 27L28 25L26 25L26 24L28 24L28 23L27 23L27 22L26 22L26 20L25 20L25 25L22 25L22 26L21 26L21 25L20 25L20 23L19 23L19 24L18 24L18 22L19 22L19 21L18 21L18 20L19 20L19 19L20 19L20 20L21 20L21 19L20 19L20 16L22 16L22 18L23 18L23 19L22 19L22 20L23 20L23 19L24 19L24 18L25 18L25 17L24 17L24 16L22 16L22 15L21 15L21 14L22 14L22 13L23 13L23 15L24 15L24 14L25 14L25 15L26 15L26 16L28 16L28 15L27 15L27 14L28 14L28 13L26 13L26 12L27 12L27 11L26 11L26 10L25 10L25 11L24 11L24 12L25 12L25 13L23 13L23 12L22 12L22 10L20 10L20 9L21 9L21 8L20 8L20 9L19 9L19 8L18 8L18 9L17 9L17 8ZM2 9L2 10L1 10L1 12L2 12L2 10L3 10L3 11L6 11L6 12L9 12L9 10L8 10L8 11L6 11L6 10L3 10L3 9ZM11 9L11 10L12 10L12 9ZM19 11L19 12L21 12L21 11ZM12 12L12 13L11 13L11 16L12 16L12 17L13 17L13 16L12 16L12 14L13 14L13 12ZM25 13L25 14L26 14L26 13ZM19 14L19 16L18 16L18 18L17 18L17 20L15 20L15 19L16 19L16 18L13 18L13 21L16 21L16 22L17 22L17 20L18 20L18 19L19 19L19 16L20 16L20 14ZM6 16L6 17L7 17L7 16ZM9 16L9 17L10 17L10 16ZM23 17L23 18L24 18L24 17ZM21 21L21 24L24 24L24 21ZM22 22L22 23L23 23L23 22ZM10 25L10 26L11 26L11 25ZM13 26L13 27L14 27L14 26ZM15 28L15 29L16 29L16 28ZM0 0L0 7L7 7L7 0ZM1 1L1 6L6 6L6 1ZM2 2L2 5L5 5L5 2ZM29 0L22 0L22 7L29 7ZM28 1L23 1L23 6L28 6ZM27 2L24 2L24 5L27 5ZM0 29L7 29L7 22L0 22ZM1 28L6 28L6 23L1 23ZM2 27L5 27L5 24L2 24Z" fill="#000000"/></g></g></svg>
