<?xml version="1.0" encoding="UTF-8"?>
<svg xmlns="http://www.w3.org/2000/svg" version="1.1" width="300" height="300" viewBox="0 0 300 300"><rect x="0" y="0" width="300" height="300" fill="#fefefe"/><g transform="scale(8.108)"><g transform="translate(4.000,4.000)"><path fill-rule="evenodd" d="M11 0L11 1L9 1L9 2L11 2L11 1L14 1L14 2L15 2L15 3L16 3L16 4L15 4L15 5L16 5L16 7L17 7L17 4L18 4L18 5L19 5L19 4L20 4L20 7L19 7L19 6L18 6L18 7L19 7L19 8L20 8L20 7L21 7L21 2L20 2L20 3L19 3L19 4L18 4L18 3L17 3L17 1L16 1L16 2L15 2L15 0ZM20 0L20 1L21 1L21 0ZM18 1L18 2L19 2L19 1ZM12 2L12 4L13 4L13 5L11 5L11 6L10 6L10 8L9 8L9 9L8 9L8 8L5 8L5 9L3 9L3 10L2 10L2 8L0 8L0 9L1 9L1 10L2 10L2 11L1 11L1 12L0 12L0 15L2 15L2 17L0 17L0 21L1 21L1 19L2 19L2 20L4 20L4 21L8 21L8 24L9 24L9 26L10 26L10 27L8 27L8 29L10 29L10 27L11 27L11 25L10 25L10 24L9 24L9 21L10 21L10 20L11 20L11 19L12 19L12 21L13 21L13 20L14 20L14 22L15 22L15 23L14 23L14 24L13 24L13 25L12 25L12 26L13 26L13 27L12 27L12 29L13 29L13 28L14 28L14 29L15 29L15 27L16 27L16 28L17 28L17 29L18 29L18 28L19 28L19 29L20 29L20 28L23 28L23 29L26 29L26 28L27 28L27 27L28 27L28 28L29 28L29 27L28 27L28 26L29 26L29 25L28 25L28 24L27 24L27 25L28 25L28 26L25 26L25 25L26 25L26 23L25 23L25 22L26 22L26 21L28 21L28 22L29 22L29 21L28 21L28 20L29 20L29 18L28 18L28 20L26 20L26 19L24 19L24 20L23 20L23 18L26 18L26 17L29 17L29 15L26 15L26 13L25 13L25 11L26 11L26 10L27 10L27 11L28 11L28 9L26 9L26 8L24 8L24 9L22 9L22 10L20 10L20 11L19 11L19 12L18 12L18 13L20 13L20 15L19 15L19 16L17 16L17 13L16 13L16 12L17 12L17 11L16 11L16 10L15 10L15 11L14 11L14 10L13 10L13 9L14 9L14 8L15 8L15 6L14 6L14 4L13 4L13 2ZM8 3L8 5L10 5L10 4L9 4L9 3ZM8 6L8 7L9 7L9 6ZM11 6L11 7L12 7L12 9L11 9L11 8L10 8L10 10L9 10L9 11L8 11L8 12L9 12L9 11L10 11L10 13L8 13L8 14L7 14L7 13L6 13L6 12L7 12L7 11L6 11L6 10L8 10L8 9L6 9L6 10L4 10L4 11L5 11L5 12L3 12L3 11L2 11L2 12L1 12L1 14L2 14L2 15L3 15L3 17L2 17L2 19L4 19L4 20L9 20L9 16L10 16L10 17L11 17L11 18L10 18L10 19L11 19L11 18L12 18L12 19L14 19L14 20L15 20L15 21L16 21L16 22L17 22L17 23L16 23L16 24L15 24L15 26L16 26L16 24L17 24L17 25L19 25L19 23L20 23L20 22L19 22L19 20L21 20L21 19L22 19L22 17L23 17L23 15L24 15L24 14L23 14L23 15L22 15L22 12L23 12L23 13L24 13L24 12L23 12L23 11L22 11L22 12L21 12L21 11L20 11L20 13L21 13L21 18L20 18L20 16L19 16L19 17L17 17L17 18L20 18L20 19L19 19L19 20L18 20L18 19L16 19L16 20L15 20L15 16L16 16L16 15L15 15L15 14L14 14L14 11L13 11L13 10L12 10L12 9L13 9L13 8L14 8L14 6L13 6L13 7L12 7L12 6ZM17 8L17 9L18 9L18 8ZM25 9L25 10L26 10L26 9ZM10 10L10 11L11 11L11 10ZM12 11L12 12L11 12L11 13L13 13L13 11ZM2 12L2 13L3 13L3 12ZM27 12L27 14L29 14L29 12ZM5 13L5 14L4 14L4 15L5 15L5 16L4 16L4 19L5 19L5 18L6 18L6 19L8 19L8 16L9 16L9 15L10 15L10 14L9 14L9 15L7 15L7 14L6 14L6 13ZM11 14L11 17L12 17L12 18L14 18L14 17L12 17L12 15L14 15L14 14ZM6 15L6 16L5 16L5 17L6 17L6 18L7 18L7 17L6 17L6 16L7 16L7 15ZM25 15L25 16L24 16L24 17L25 17L25 16L26 16L26 15ZM17 20L17 22L18 22L18 23L19 23L19 22L18 22L18 20ZM25 20L25 21L26 21L26 20ZM21 21L21 24L24 24L24 21ZM10 22L10 23L11 23L11 24L12 24L12 23L13 23L13 22ZM22 22L22 23L23 23L23 22ZM20 25L20 26L19 26L19 27L20 27L20 26L21 26L21 25ZM22 25L22 26L24 26L24 25ZM17 26L17 28L18 28L18 26ZM24 27L24 28L25 28L25 27ZM0 0L0 7L7 7L7 0ZM1 1L1 6L6 6L6 1ZM2 2L2 5L5 5L5 2ZM29 0L22 0L22 7L29 7ZM28 1L23 1L23 6L28 6ZM27 2L24 2L24 5L27 5ZM0 29L7 29L7 22L0 22ZM1 28L6 28L6 23L1 23ZM2 27L5 27L5 24L2 24Z" fill="#000000"/></g></g></svg>
