<?xml version="1.0" encoding="UTF-8"?>
<svg xmlns="http://www.w3.org/2000/svg" version="1.1" width="300" height="300" viewBox="0 0 300 300"><rect x="0" y="0" width="300" height="300" fill="#fefefe"/><g transform="scale(8.108)"><g transform="translate(4.000,4.000)"><path fill-rule="evenodd" d="M11 0L11 1L9 1L9 2L11 2L11 1L13 1L13 2L12 2L12 4L13 4L13 5L11 5L11 6L10 6L10 8L9 8L9 10L8 10L8 8L5 8L5 9L2 9L2 8L0 8L0 9L2 9L2 10L3 10L3 11L2 11L2 12L1 12L1 14L0 14L0 15L1 15L1 14L2 14L2 16L3 16L3 17L5 17L5 18L3 18L3 19L2 19L2 17L1 17L1 16L0 16L0 21L1 21L1 19L2 19L2 21L5 21L5 20L6 20L6 21L8 21L8 24L9 24L9 23L10 23L10 26L9 26L9 27L8 27L8 29L9 29L9 28L10 28L10 29L11 29L11 28L10 28L10 27L11 27L11 24L12 24L12 23L13 23L13 22L9 22L9 21L11 21L11 20L9 20L9 21L8 21L8 19L10 19L10 18L11 18L11 19L12 19L12 21L13 21L13 20L14 20L14 22L15 22L15 23L14 23L14 24L13 24L13 25L12 25L12 26L13 26L13 27L12 27L12 29L13 29L13 28L14 28L14 29L16 29L16 26L17 26L17 27L19 27L19 26L22 26L22 27L25 27L25 28L27 28L27 27L28 27L28 28L29 28L29 27L28 27L28 26L29 26L29 25L28 25L28 24L26 24L26 23L27 23L27 21L28 21L28 22L29 22L29 20L26 20L26 19L25 19L25 20L22 20L22 19L24 19L24 18L25 18L25 17L22 17L22 16L26 16L26 18L28 18L28 19L29 19L29 18L28 18L28 16L29 16L29 15L28 15L28 16L27 16L27 14L28 14L28 12L29 12L29 11L28 11L28 12L26 12L26 11L27 11L27 9L26 9L26 8L24 8L24 9L23 9L23 10L21 10L21 11L19 11L19 10L20 10L20 8L19 8L19 5L21 5L21 2L18 2L18 3L20 3L20 4L19 4L19 5L17 5L17 2L16 2L16 7L15 7L15 6L14 6L14 7L15 7L15 8L13 8L13 9L12 9L12 7L13 7L13 5L14 5L14 3L13 3L13 2L14 2L14 0ZM16 0L16 1L20 1L20 0ZM8 3L8 5L10 5L10 4L9 4L9 3ZM8 6L8 7L9 7L9 6ZM11 6L11 7L12 7L12 6ZM17 6L17 7L16 7L16 10L17 10L17 11L16 11L16 14L17 14L17 15L16 15L16 17L17 17L17 18L16 18L16 19L15 19L15 16L14 16L14 13L15 13L15 11L13 11L13 10L14 10L14 9L13 9L13 10L12 10L12 9L11 9L11 8L10 8L10 10L9 10L9 11L6 11L6 10L7 10L7 9L5 9L5 10L4 10L4 12L8 12L8 13L6 13L6 14L5 14L5 13L4 13L4 15L3 15L3 16L4 16L4 15L6 15L6 16L5 16L5 17L6 17L6 18L7 18L7 17L8 17L8 18L10 18L10 16L11 16L11 15L10 15L10 14L13 14L13 15L12 15L12 17L11 17L11 18L12 18L12 19L14 19L14 20L16 20L16 21L15 21L15 22L16 22L16 23L15 23L15 26L16 26L16 25L19 25L19 21L20 21L20 20L21 20L21 19L20 19L20 20L19 20L19 17L20 17L20 15L21 15L21 16L22 16L22 15L21 15L21 14L22 14L22 11L21 11L21 12L20 12L20 13L19 13L19 11L18 11L18 10L19 10L19 9L17 9L17 8L18 8L18 6ZM20 6L20 7L21 7L21 6ZM25 9L25 11L26 11L26 9ZM28 9L28 10L29 10L29 9ZM0 10L0 11L1 11L1 10ZM10 10L10 11L9 11L9 13L10 13L10 11L11 11L11 10ZM23 10L23 11L24 11L24 10ZM12 11L12 12L11 12L11 13L13 13L13 11ZM2 12L2 13L3 13L3 12ZM23 12L23 14L24 14L24 13L25 13L25 15L26 15L26 14L27 14L27 13L25 13L25 12ZM17 13L17 14L19 14L19 13ZM20 13L20 14L21 14L21 13ZM6 14L6 15L7 15L7 16L6 16L6 17L7 17L7 16L8 16L8 17L9 17L9 16L10 16L10 15L8 15L8 14ZM12 17L12 18L14 18L14 17ZM3 19L3 20L4 20L4 19ZM6 19L6 20L7 20L7 19ZM16 19L16 20L17 20L17 19ZM21 21L21 24L24 24L24 21ZM22 22L22 23L23 23L23 22ZM25 24L25 25L24 25L24 26L25 26L25 27L27 27L27 26L28 26L28 25L26 25L26 24ZM22 25L22 26L23 26L23 25ZM20 27L20 28L19 28L19 29L20 29L20 28L21 28L21 29L22 29L22 28L21 28L21 27ZM0 0L0 7L7 7L7 0ZM1 1L1 6L6 6L6 1ZM2 2L2 5L5 5L5 2ZM29 0L22 0L22 7L29 7ZM28 1L23 1L23 6L28 6ZM27 2L24 2L24 5L27 5ZM0 29L7 29L7 22L0 22ZM1 28L6 28L6 23L1 23ZM2 27L5 27L5 24L2 24Z" fill="#000000"/></g></g></svg>
