<?xml version="1.0" encoding="UTF-8"?>
<svg xmlns="http://www.w3.org/2000/svg" version="1.1" width="300" height="300" viewBox="0 0 300 300"><rect x="0" y="0" width="300" height="300" fill="#fefefe"/><g transform="scale(8.108)"><g transform="translate(4.000,4.000)"><path fill-rule="evenodd" d="M8 0L8 4L10 4L10 3L11 3L11 4L12 4L12 2L11 2L11 0ZM12 0L12 1L15 1L15 0ZM16 0L16 1L17 1L17 2L16 2L16 3L13 3L13 4L14 4L14 5L11 5L11 6L10 6L10 7L9 7L9 5L8 5L8 7L9 7L9 8L10 8L10 7L11 7L11 6L12 6L12 8L11 8L11 9L7 9L7 8L4 8L4 9L2 9L2 8L0 8L0 9L2 9L2 10L1 10L1 11L3 11L3 12L4 12L4 9L7 9L7 10L6 10L6 11L5 11L5 12L6 12L6 13L8 13L8 15L7 15L7 14L4 14L4 13L1 13L1 12L0 12L0 14L2 14L2 15L1 15L1 16L0 16L0 18L1 18L1 16L2 16L2 15L4 15L4 16L3 16L3 17L2 17L2 19L3 19L3 20L0 20L0 21L3 21L3 20L4 20L4 21L8 21L8 22L9 22L9 21L11 21L11 20L12 20L12 21L13 21L13 22L15 22L15 23L14 23L14 24L13 24L13 23L12 23L12 24L10 24L10 23L11 23L11 22L10 22L10 23L8 23L8 25L9 25L9 24L10 24L10 25L12 25L12 26L10 26L10 27L8 27L8 29L9 29L9 28L10 28L10 29L11 29L11 28L12 28L12 29L14 29L14 27L16 27L16 28L15 28L15 29L18 29L18 27L17 27L17 25L18 25L18 26L19 26L19 25L20 25L20 29L22 29L22 25L23 25L23 26L24 26L24 25L25 25L25 29L26 29L26 26L27 26L27 29L28 29L28 28L29 28L29 22L28 22L28 23L27 23L27 21L25 21L25 20L24 20L24 19L27 19L27 20L28 20L28 21L29 21L29 18L28 18L28 19L27 19L27 17L28 17L28 16L29 16L29 12L28 12L28 11L29 11L29 10L28 10L28 11L27 11L27 10L26 10L26 9L29 9L29 8L25 8L25 9L24 9L24 8L23 8L23 10L21 10L21 11L22 11L22 12L20 12L20 13L22 13L22 12L26 12L26 11L27 11L27 13L23 13L23 15L21 15L21 14L20 14L20 15L19 15L19 14L18 14L18 15L16 15L16 14L17 14L17 12L18 12L18 11L19 11L19 10L20 10L20 9L21 9L21 5L19 5L19 3L20 3L20 2L21 2L21 0L20 0L20 1L17 1L17 0ZM9 2L9 3L10 3L10 2ZM16 3L16 4L17 4L17 7L18 7L18 8L15 8L15 7L16 7L16 5L15 5L15 7L14 7L14 6L13 6L13 8L12 8L12 9L11 9L11 10L9 10L9 11L6 11L6 12L9 12L9 13L10 13L10 14L9 14L9 15L11 15L11 16L10 16L10 17L11 17L11 18L12 18L12 17L13 17L13 18L14 18L14 17L13 17L13 16L15 16L15 17L16 17L16 18L17 18L17 19L16 19L16 20L15 20L15 19L14 19L14 21L16 21L16 20L17 20L17 19L18 19L18 22L16 22L16 23L15 23L15 25L13 25L13 24L12 24L12 25L13 25L13 26L15 26L15 25L17 25L17 24L16 24L16 23L18 23L18 25L19 25L19 23L20 23L20 20L21 20L21 17L20 17L20 16L17 16L17 17L16 17L16 15L13 15L13 13L15 13L15 14L16 14L16 13L15 13L15 12L14 12L14 10L15 10L15 9L17 9L17 11L18 11L18 10L19 10L19 8L20 8L20 6L19 6L19 5L18 5L18 4L17 4L17 3ZM18 6L18 7L19 7L19 6ZM12 9L12 10L11 10L11 11L10 11L10 13L11 13L11 12L12 12L12 13L13 13L13 12L12 12L12 11L13 11L13 10L14 10L14 9ZM23 10L23 11L26 11L26 10ZM27 13L27 14L26 14L26 16L28 16L28 13ZM24 14L24 15L23 15L23 16L22 16L22 17L23 17L23 18L22 18L22 19L23 19L23 18L24 18L24 17L25 17L25 14ZM5 15L5 16L4 16L4 20L7 20L7 19L6 19L6 18L8 18L8 17L9 17L9 16L7 16L7 15ZM12 15L12 16L11 16L11 17L12 17L12 16L13 16L13 15ZM6 16L6 17L7 17L7 16ZM23 16L23 17L24 17L24 16ZM19 17L19 18L18 18L18 19L19 19L19 18L20 18L20 17ZM9 18L9 19L10 19L10 18ZM12 19L12 20L13 20L13 19ZM8 20L8 21L9 21L9 20ZM21 21L21 24L24 24L24 21ZM22 22L22 23L23 23L23 22ZM26 23L26 24L25 24L25 25L26 25L26 24L27 24L27 26L28 26L28 24L27 24L27 23ZM12 27L12 28L13 28L13 27ZM23 28L23 29L24 29L24 28ZM0 0L0 7L7 7L7 0ZM1 1L1 6L6 6L6 1ZM2 2L2 5L5 5L5 2ZM29 0L22 0L22 7L29 7ZM28 1L23 1L23 6L28 6ZM27 2L24 2L24 5L27 5ZM0 29L7 29L7 22L0 22ZM1 28L6 28L6 23L1 23ZM2 27L5 27L5 24L2 24Z" fill="#000000"/></g></g></svg>
