<?xml version="1.0" encoding="UTF-8"?>
<svg xmlns="http://www.w3.org/2000/svg" version="1.1" width="300" height="300" viewBox="0 0 300 300"><rect x="0" y="0" width="300" height="300" fill="#fefefe"/><g transform="scale(8.108)"><g transform="translate(4.000,4.000)"><path fill-rule="evenodd" d="M8 0L8 4L10 4L10 3L11 3L11 4L12 4L12 2L11 2L11 0ZM12 0L12 1L14 1L14 2L15 2L15 1L14 1L14 0ZM16 0L16 3L14 3L14 4L13 4L13 5L11 5L11 6L10 6L10 7L9 7L9 5L8 5L8 7L9 7L9 8L10 8L10 7L11 7L11 6L12 6L12 8L11 8L11 9L7 9L7 8L4 8L4 9L3 9L3 10L1 10L1 9L2 9L2 8L0 8L0 10L1 10L1 11L0 11L0 12L1 12L1 11L3 11L3 15L2 15L2 16L3 16L3 15L4 15L4 16L6 16L6 17L7 17L7 18L6 18L6 19L7 19L7 20L3 20L3 21L7 21L7 20L9 20L9 21L8 21L8 22L10 22L10 23L8 23L8 25L9 25L9 27L8 27L8 29L9 29L9 28L10 28L10 29L11 29L11 28L12 28L12 29L14 29L14 27L15 27L15 28L16 28L16 26L18 26L18 27L17 27L17 28L18 28L18 27L19 27L19 28L20 28L20 29L21 29L21 28L22 28L22 29L23 29L23 28L22 28L22 27L23 27L23 26L25 26L25 25L26 25L26 27L24 27L24 29L25 29L25 28L26 28L26 29L28 29L28 28L29 28L29 22L28 22L28 21L27 21L27 20L28 20L28 19L29 19L29 18L28 18L28 19L27 19L27 18L26 18L26 17L25 17L25 16L26 16L26 15L27 15L27 14L28 14L28 15L29 15L29 13L28 13L28 12L29 12L29 8L25 8L25 9L24 9L24 8L23 8L23 9L21 9L21 10L20 10L20 12L19 12L19 11L18 11L18 8L19 8L19 9L20 9L20 8L21 8L21 6L20 6L20 5L21 5L21 2L20 2L20 1L19 1L19 2L20 2L20 5L19 5L19 3L18 3L18 1L17 1L17 0ZM9 2L9 3L10 3L10 2ZM16 3L16 5L15 5L15 4L14 4L14 5L13 5L13 8L12 8L12 9L11 9L11 10L8 10L8 11L6 11L6 10L7 10L7 9L6 9L6 10L4 10L4 12L8 12L8 13L6 13L6 14L4 14L4 15L6 15L6 16L7 16L7 17L8 17L8 16L9 16L9 18L7 18L7 19L9 19L9 20L10 20L10 21L11 21L11 23L10 23L10 24L9 24L9 25L10 25L10 27L11 27L11 26L12 26L12 25L13 25L13 26L15 26L15 25L19 25L19 26L20 26L20 27L21 27L21 26L20 26L20 25L19 25L19 24L17 24L17 22L19 22L19 23L20 23L20 20L21 20L21 17L20 17L20 14L21 14L21 12L22 12L22 15L23 15L23 12L25 12L25 13L26 13L26 12L27 12L27 11L28 11L28 10L26 10L26 12L25 12L25 11L24 11L24 10L23 10L23 12L22 12L22 10L21 10L21 12L20 12L20 13L18 13L18 17L17 17L17 18L16 18L16 19L20 19L20 20L19 20L19 21L16 21L16 20L15 20L15 19L14 19L14 21L16 21L16 23L15 23L15 22L13 22L13 21L12 21L12 20L13 20L13 19L12 19L12 20L11 20L11 18L12 18L12 17L13 17L13 18L14 18L14 17L13 17L13 16L14 16L14 15L13 15L13 13L15 13L15 14L16 14L16 13L17 13L17 12L16 12L16 11L17 11L17 10L16 10L16 11L15 11L15 7L16 7L16 9L17 9L17 7L18 7L18 6L19 6L19 8L20 8L20 6L19 6L19 5L18 5L18 3ZM16 5L16 7L17 7L17 5ZM14 6L14 7L15 7L15 6ZM12 9L12 10L11 10L11 11L10 11L10 13L11 13L11 12L12 12L12 13L13 13L13 12L12 12L12 11L13 11L13 9ZM8 11L8 12L9 12L9 11ZM15 12L15 13L16 13L16 12ZM8 13L8 14L6 14L6 15L7 15L7 16L8 16L8 15L10 15L10 16L11 16L11 17L12 17L12 16L13 16L13 15L12 15L12 16L11 16L11 15L10 15L10 14L9 14L9 13ZM0 14L0 18L2 18L2 17L1 17L1 14ZM24 14L24 16L25 16L25 14ZM16 15L16 16L15 16L15 17L16 17L16 16L17 16L17 15ZM22 16L22 18L23 18L23 19L24 19L24 20L25 20L25 19L26 19L26 20L27 20L27 19L26 19L26 18L23 18L23 16ZM27 16L27 17L28 17L28 16ZM3 17L3 18L5 18L5 17ZM18 17L18 18L20 18L20 17ZM0 20L0 21L2 21L2 20ZM21 21L21 24L24 24L24 21ZM25 21L25 22L26 22L26 24L27 24L27 26L28 26L28 24L27 24L27 23L28 23L28 22L26 22L26 21ZM22 22L22 23L23 23L23 22ZM12 23L12 24L11 24L11 25L12 25L12 24L13 24L13 25L15 25L15 23L14 23L14 24L13 24L13 23ZM22 25L22 26L23 26L23 25ZM12 27L12 28L13 28L13 27ZM26 27L26 28L27 28L27 27ZM0 0L0 7L7 7L7 0ZM1 1L1 6L6 6L6 1ZM2 2L2 5L5 5L5 2ZM29 0L22 0L22 7L29 7ZM28 1L23 1L23 6L28 6ZM27 2L24 2L24 5L27 5ZM0 29L7 29L7 22L0 22ZM1 28L6 28L6 23L1 23ZM2 27L5 27L5 24L2 24Z" fill="#000000"/></g></g></svg>
