<?xml version="1.0" encoding="UTF-8"?>
<svg xmlns="http://www.w3.org/2000/svg" version="1.1" width="300" height="300" viewBox="0 0 300 300"><rect x="0" y="0" width="300" height="300" fill="#fefefe"/><g transform="scale(8.108)"><g transform="translate(4.000,4.000)"><path fill-rule="evenodd" d="M10 0L10 2L11 2L11 0ZM12 0L12 1L14 1L14 4L16 4L16 5L14 5L14 9L12 9L12 7L13 7L13 5L11 5L11 6L10 6L10 4L11 4L11 3L8 3L8 4L9 4L9 5L8 5L8 7L9 7L9 8L6 8L6 9L8 9L8 10L4 10L4 9L5 9L5 8L0 8L0 9L2 9L2 10L0 10L0 11L1 11L1 12L0 12L0 21L1 21L1 18L2 18L2 19L3 19L3 21L5 21L5 20L6 20L6 21L7 21L7 20L6 20L6 19L7 19L7 18L6 18L6 17L8 17L8 18L9 18L9 15L10 15L10 13L11 13L11 12L9 12L9 11L8 11L8 10L9 10L9 9L10 9L10 11L11 11L11 9L12 9L12 10L13 10L13 11L12 11L12 13L14 13L14 16L15 16L15 17L17 17L17 19L16 19L16 18L14 18L14 17L12 17L12 15L13 15L13 14L11 14L11 16L10 16L10 18L11 18L11 17L12 17L12 18L13 18L13 19L12 19L12 21L13 21L13 20L14 20L14 21L16 21L16 22L15 22L15 23L14 23L14 24L16 24L16 25L18 25L18 26L19 26L19 27L18 27L18 28L19 28L19 29L20 29L20 26L19 26L19 25L18 25L18 24L16 24L16 23L18 23L18 22L17 22L17 21L18 21L18 20L17 20L17 19L18 19L18 18L20 18L20 20L19 20L19 21L20 21L20 22L19 22L19 24L20 24L20 25L24 25L24 26L23 26L23 27L25 27L25 28L23 28L23 29L25 29L25 28L26 28L26 29L27 29L27 28L28 28L28 26L29 26L29 24L28 24L28 23L27 23L27 22L29 22L29 21L27 21L27 22L26 22L26 23L25 23L25 21L26 21L26 18L27 18L27 17L29 17L29 15L27 15L27 14L25 14L25 12L26 12L26 11L27 11L27 13L29 13L29 12L28 12L28 11L27 11L27 10L28 10L28 8L27 8L27 9L26 9L26 8L25 8L25 9L24 9L24 8L23 8L23 10L25 10L25 11L24 11L24 13L22 13L22 12L23 12L23 11L22 11L22 10L21 10L21 9L22 9L22 8L20 8L20 7L21 7L21 6L20 6L20 7L19 7L19 6L18 6L18 8L17 8L17 6L16 6L16 5L21 5L21 3L20 3L20 2L21 2L21 0L20 0L20 2L19 2L19 3L20 3L20 4L17 4L17 3L15 3L15 2L16 2L16 1L17 1L17 0L15 0L15 1L14 1L14 0ZM8 1L8 2L9 2L9 1ZM12 2L12 4L13 4L13 2ZM9 6L9 7L10 7L10 6ZM11 6L11 7L12 7L12 6ZM15 6L15 7L16 7L16 6ZM10 8L10 9L11 9L11 8ZM18 8L18 10L19 10L19 11L20 11L20 13L19 13L19 12L18 12L18 11L17 11L17 10L16 10L16 11L17 11L17 12L14 12L14 11L13 11L13 12L14 12L14 13L15 13L15 14L16 14L16 13L17 13L17 15L16 15L16 16L18 16L18 17L20 17L20 16L19 16L19 15L22 15L22 16L21 16L21 18L22 18L22 17L23 17L23 16L25 16L25 17L26 17L26 16L27 16L27 15L26 15L26 16L25 16L25 15L23 15L23 14L22 14L22 13L21 13L21 10L20 10L20 9L19 9L19 8ZM14 9L14 10L15 10L15 9ZM25 9L25 10L26 10L26 9ZM2 10L2 11L3 11L3 10ZM4 11L4 12L1 12L1 17L2 17L2 18L3 18L3 19L4 19L4 20L5 20L5 19L6 19L6 18L5 18L5 19L4 19L4 17L5 17L5 16L8 16L8 15L9 15L9 13L8 13L8 11ZM6 12L6 13L5 13L5 14L6 14L6 15L7 15L7 14L6 14L6 13L7 13L7 12ZM2 13L2 15L4 15L4 14L3 14L3 13ZM18 13L18 15L19 15L19 13ZM20 13L20 14L21 14L21 13ZM24 18L24 20L25 20L25 18ZM8 19L8 23L9 23L9 24L8 24L8 29L9 29L9 28L11 28L11 25L12 25L12 26L13 26L13 27L12 27L12 29L13 29L13 28L14 28L14 29L16 29L16 27L17 27L17 26L15 26L15 25L12 25L12 23L13 23L13 22L10 22L10 21L11 21L11 19ZM14 19L14 20L15 20L15 19ZM22 19L22 20L23 20L23 19ZM28 19L28 20L29 20L29 19ZM21 21L21 24L24 24L24 21ZM22 22L22 23L23 23L23 22ZM10 23L10 24L9 24L9 25L11 25L11 23ZM26 23L26 24L25 24L25 26L26 26L26 28L27 28L27 26L26 26L26 24L27 24L27 23ZM9 26L9 27L10 27L10 26ZM21 26L21 28L22 28L22 26ZM14 27L14 28L15 28L15 27ZM0 0L0 7L7 7L7 0ZM1 1L1 6L6 6L6 1ZM2 2L2 5L5 5L5 2ZM29 0L22 0L22 7L29 7ZM28 1L23 1L23 6L28 6ZM27 2L24 2L24 5L27 5ZM0 29L7 29L7 22L0 22ZM1 28L6 28L6 23L1 23ZM2 27L5 27L5 24L2 24Z" fill="#000000"/></g></g></svg>
