<?xml version="1.0" encoding="UTF-8"?>
<svg xmlns="http://www.w3.org/2000/svg" version="1.1" width="300" height="300" viewBox="0 0 300 300"><rect x="0" y="0" width="300" height="300" fill="#fefefe"/><g transform="scale(8.108)"><g transform="translate(4.000,4.000)"><path fill-rule="evenodd" d="M10 0L10 2L11 2L11 0ZM12 0L12 1L13 1L13 0ZM16 0L16 1L14 1L14 2L16 2L16 3L14 3L14 4L13 4L13 2L12 2L12 4L13 4L13 5L11 5L11 6L10 6L10 4L11 4L11 3L8 3L8 4L9 4L9 5L8 5L8 7L9 7L9 8L6 8L6 9L5 9L5 8L0 8L0 11L1 11L1 12L0 12L0 15L2 15L2 14L1 14L1 12L3 12L3 16L0 16L0 21L1 21L1 17L2 17L2 18L4 18L4 19L2 19L2 20L3 20L3 21L7 21L7 20L6 20L6 19L7 19L7 18L4 18L4 17L7 17L7 16L9 16L9 18L8 18L8 19L9 19L9 20L10 20L10 18L11 18L11 17L12 17L12 18L13 18L13 19L12 19L12 21L13 21L13 20L14 20L14 21L15 21L15 20L14 20L14 19L16 19L16 20L17 20L17 21L16 21L16 22L15 22L15 23L14 23L14 24L15 24L15 25L12 25L12 23L13 23L13 22L11 22L11 24L10 24L10 21L8 21L8 23L9 23L9 24L8 24L8 29L10 29L10 28L11 28L11 27L10 27L10 25L12 25L12 26L13 26L13 27L12 27L12 29L13 29L13 28L14 28L14 29L16 29L16 28L17 28L17 29L18 29L18 28L17 28L17 26L19 26L19 27L20 27L20 28L19 28L19 29L20 29L20 28L21 28L21 29L22 29L22 28L21 28L21 27L23 27L23 28L26 28L26 27L25 27L25 24L26 24L26 26L27 26L27 28L28 28L28 26L29 26L29 24L28 24L28 22L29 22L29 21L28 21L28 19L27 19L27 18L26 18L26 17L28 17L28 18L29 18L29 16L26 16L26 15L27 15L27 14L28 14L28 13L27 13L27 12L26 12L26 11L27 11L27 10L28 10L28 8L27 8L27 10L25 10L25 9L26 9L26 8L25 8L25 9L24 9L24 8L23 8L23 9L22 9L22 8L20 8L20 7L21 7L21 6L20 6L20 7L19 7L19 6L18 6L18 5L20 5L20 4L21 4L21 3L20 3L20 2L21 2L21 0L20 0L20 2L19 2L19 1L18 1L18 0ZM8 1L8 2L9 2L9 1ZM16 1L16 2L17 2L17 3L16 3L16 4L14 4L14 5L13 5L13 7L12 7L12 6L11 6L11 7L12 7L12 9L11 9L11 8L10 8L10 9L8 9L8 10L7 10L7 9L6 9L6 10L7 10L7 11L6 11L6 12L11 12L11 13L9 13L9 14L8 14L8 13L5 13L5 14L8 14L8 15L10 15L10 16L11 16L11 14L14 14L14 11L15 11L15 10L17 10L17 12L18 12L18 13L22 13L22 14L21 14L21 15L22 15L22 16L20 16L20 14L18 14L18 15L16 15L16 16L17 16L17 17L22 17L22 18L23 18L23 19L22 19L22 20L25 20L25 19L24 19L24 18L23 18L23 13L26 13L26 14L27 14L27 13L26 13L26 12L24 12L24 11L25 11L25 10L22 10L22 9L21 9L21 10L22 10L22 11L21 11L21 12L20 12L20 9L19 9L19 7L18 7L18 6L17 6L17 7L16 7L16 6L15 6L15 8L14 8L14 5L16 5L16 4L17 4L17 3L18 3L18 4L20 4L20 3L18 3L18 2L17 2L17 1ZM9 6L9 7L10 7L10 6ZM13 8L13 9L12 9L12 10L15 10L15 9L18 9L18 10L19 10L19 9L18 9L18 8L15 8L15 9L14 9L14 8ZM2 9L2 10L3 10L3 9ZM4 9L4 11L5 11L5 9ZM10 9L10 11L11 11L11 9ZM8 10L8 11L9 11L9 10ZM12 11L12 13L13 13L13 11ZM18 11L18 12L19 12L19 11ZM15 13L15 14L16 14L16 13ZM24 14L24 15L25 15L25 14ZM5 15L5 16L7 16L7 15ZM12 15L12 17L14 17L14 18L15 18L15 16L14 16L14 15ZM3 16L3 17L4 17L4 16ZM24 16L24 17L26 17L26 16ZM19 18L19 20L18 20L18 19L17 19L17 20L18 20L18 21L17 21L17 22L19 22L19 23L17 23L17 24L16 24L16 23L15 23L15 24L16 24L16 25L15 25L15 26L16 26L16 25L17 25L17 24L18 24L18 25L19 25L19 26L23 26L23 25L20 25L20 24L19 24L19 23L20 23L20 21L19 21L19 20L21 20L21 18ZM4 19L4 20L5 20L5 19ZM26 19L26 20L27 20L27 19ZM21 21L21 24L24 24L24 21ZM26 21L26 24L27 24L27 22L28 22L28 21ZM22 22L22 23L23 23L23 22ZM9 27L9 28L10 28L10 27ZM14 27L14 28L15 28L15 27ZM0 0L0 7L7 7L7 0ZM1 1L1 6L6 6L6 1ZM2 2L2 5L5 5L5 2ZM29 0L22 0L22 7L29 7ZM28 1L23 1L23 6L28 6ZM27 2L24 2L24 5L27 5ZM0 29L7 29L7 22L0 22ZM1 28L6 28L6 23L1 23ZM2 27L5 27L5 24L2 24Z" fill="#000000"/></g></g></svg>
