<?xml version="1.0" encoding="UTF-8"?>
<svg xmlns="http://www.w3.org/2000/svg" version="1.1" width="300" height="300" viewBox="0 0 300 300"><rect x="0" y="0" width="300" height="300" fill="#fefefe"/><g transform="scale(8.108)"><g transform="translate(4.000,4.000)"><path fill-rule="evenodd" d="M8 0L8 1L9 1L9 2L8 2L8 5L9 5L9 4L11 4L11 5L10 5L10 10L9 10L9 8L8 8L8 9L7 9L7 8L6 8L6 9L7 9L7 10L6 10L6 11L7 11L7 12L6 12L6 13L3 13L3 12L5 12L5 10L3 10L3 12L2 12L2 9L4 9L4 8L0 8L0 9L1 9L1 11L0 11L0 13L1 13L1 15L0 15L0 16L1 16L1 17L2 17L2 14L4 14L4 16L3 16L3 19L2 19L2 20L1 20L1 21L2 21L2 20L4 20L4 21L7 21L7 20L8 20L8 22L9 22L9 20L8 20L8 18L9 18L9 19L10 19L10 20L12 20L12 19L10 19L10 18L9 18L9 17L10 17L10 16L12 16L12 17L13 17L13 16L12 16L12 14L16 14L16 15L15 15L15 16L14 16L14 17L15 17L15 18L13 18L13 21L15 21L15 22L14 22L14 23L11 23L11 21L10 21L10 23L9 23L9 24L10 24L10 25L8 25L8 29L9 29L9 27L10 27L10 26L12 26L12 28L10 28L10 29L12 29L12 28L14 28L14 27L15 27L15 26L16 26L16 27L18 27L18 29L19 29L19 28L20 28L20 29L21 29L21 27L22 27L22 26L21 26L21 27L18 27L18 26L19 26L19 25L17 25L17 22L18 22L18 23L19 23L19 22L20 22L20 25L23 25L23 27L24 27L24 28L23 28L23 29L26 29L26 27L24 27L24 26L25 26L25 22L26 22L26 21L28 21L28 22L29 22L29 20L27 20L27 19L25 19L25 18L28 18L28 16L29 16L29 14L25 14L25 15L23 15L23 14L24 14L24 12L23 12L23 11L22 11L22 10L23 10L23 9L22 9L22 8L21 8L21 6L20 6L20 5L19 5L19 3L17 3L17 2L19 2L19 1L20 1L20 2L21 2L21 0L19 0L19 1L17 1L17 0L14 0L14 1L13 1L13 0L12 0L12 1L11 1L11 0L10 0L10 1L9 1L9 0ZM15 1L15 2L14 2L14 3L15 3L15 2L16 2L16 1ZM11 2L11 4L12 4L12 3L13 3L13 2ZM16 3L16 4L17 4L17 3ZM12 5L12 6L11 6L11 8L12 8L12 6L13 6L13 9L14 9L14 10L13 10L13 11L11 11L11 13L9 13L9 10L7 10L7 11L8 11L8 13L6 13L6 14L8 14L8 15L9 15L9 16L8 16L8 17L6 17L6 18L5 18L5 17L4 17L4 20L7 20L7 19L6 19L6 18L8 18L8 17L9 17L9 16L10 16L10 15L11 15L11 13L12 13L12 12L13 12L13 13L14 13L14 12L13 12L13 11L15 11L15 13L17 13L17 14L18 14L18 15L17 15L17 16L16 16L16 21L18 21L18 20L17 20L17 19L24 19L24 18L25 18L25 17L26 17L26 16L28 16L28 15L26 15L26 16L25 16L25 17L24 17L24 16L23 16L23 15L22 15L22 17L24 17L24 18L20 18L20 17L21 17L21 16L20 16L20 15L19 15L19 14L18 14L18 13L20 13L20 14L23 14L23 12L22 12L22 11L21 11L21 10L22 10L22 9L21 9L21 8L20 8L20 6L19 6L19 5L18 5L18 6L17 6L17 5L15 5L15 9L14 9L14 6L13 6L13 5ZM8 6L8 7L9 7L9 6ZM16 6L16 7L17 7L17 9L16 9L16 10L19 10L19 8L18 8L18 7L19 7L19 6L18 6L18 7L17 7L17 6ZM24 8L24 10L25 10L25 11L27 11L27 10L25 10L25 9L27 9L27 8ZM28 8L28 10L29 10L29 8ZM11 9L11 10L12 10L12 9ZM20 9L20 10L21 10L21 9ZM16 11L16 12L17 12L17 11ZM18 11L18 12L19 12L19 11ZM1 12L1 13L2 13L2 12ZM25 12L25 13L27 13L27 12ZM28 12L28 13L29 13L29 12ZM5 15L5 16L7 16L7 15ZM18 15L18 16L17 16L17 17L19 17L19 15ZM0 18L0 19L1 19L1 18ZM25 20L25 21L26 21L26 20ZM21 21L21 24L24 24L24 21ZM15 22L15 24L12 24L12 26L13 26L13 27L14 27L14 26L15 26L15 25L16 25L16 26L17 26L17 25L16 25L16 22ZM22 22L22 23L23 23L23 22ZM10 23L10 24L11 24L11 23ZM28 23L28 24L26 24L26 26L27 26L27 25L28 25L28 27L27 27L27 29L28 29L28 27L29 27L29 23ZM13 25L13 26L14 26L14 25ZM16 28L16 29L17 29L17 28ZM0 0L0 7L7 7L7 0ZM1 1L1 6L6 6L6 1ZM2 2L2 5L5 5L5 2ZM29 0L22 0L22 7L29 7ZM28 1L23 1L23 6L28 6ZM27 2L24 2L24 5L27 5ZM0 29L7 29L7 22L0 22ZM1 28L6 28L6 23L1 23ZM2 27L5 27L5 24L2 24Z" fill="#000000"/></g></g></svg>
