<?xml version="1.0" encoding="UTF-8"?>
<svg xmlns="http://www.w3.org/2000/svg" version="1.1" width="300" height="300" viewBox="0 0 300 300"><rect x="0" y="0" width="300" height="300" fill="#fefefe"/><g transform="scale(8.108)"><g transform="translate(4.000,4.000)"><path fill-rule="evenodd" d="M9 0L9 1L8 1L8 3L9 3L9 4L8 4L8 8L6 8L6 9L4 9L4 8L3 8L3 9L4 9L4 10L3 10L3 11L2 11L2 12L3 12L3 13L4 13L4 15L3 15L3 14L2 14L2 15L0 15L0 17L1 17L1 16L2 16L2 15L3 15L3 17L2 17L2 18L4 18L4 16L5 16L5 14L6 14L6 15L7 15L7 14L6 14L6 13L9 13L9 12L8 12L8 11L7 11L7 10L6 10L6 9L8 9L8 8L10 8L10 10L9 10L9 11L11 11L11 10L12 10L12 9L11 9L11 8L10 8L10 7L11 7L11 6L12 6L12 8L13 8L13 6L14 6L14 7L15 7L15 8L14 8L14 9L13 9L13 10L14 10L14 11L13 11L13 12L12 12L12 13L10 13L10 14L8 14L8 15L10 15L10 17L12 17L12 16L13 16L13 17L14 17L14 18L13 18L13 20L12 20L12 19L11 19L11 18L9 18L9 16L8 16L8 18L5 18L5 19L3 19L3 20L2 20L2 21L5 21L5 20L6 20L6 21L8 21L8 23L10 23L10 25L8 25L8 26L9 26L9 27L8 27L8 29L10 29L10 25L11 25L11 28L12 28L12 29L14 29L14 28L12 28L12 24L14 24L14 25L13 25L13 27L15 27L15 28L16 28L16 29L17 29L17 28L19 28L19 26L20 26L20 25L22 25L22 28L21 28L21 27L20 27L20 29L23 29L23 28L24 28L24 29L28 29L28 27L29 27L29 26L28 26L28 25L27 25L27 26L24 26L24 25L25 25L25 22L27 22L27 23L26 23L26 24L28 24L28 22L27 22L27 20L28 20L28 21L29 21L29 17L28 17L28 16L29 16L29 14L28 14L28 16L26 16L26 17L25 17L25 18L26 18L26 17L27 17L27 20L26 20L26 19L24 19L24 17L22 17L22 15L23 15L23 16L25 16L25 14L24 14L24 15L23 15L23 12L20 12L20 10L19 10L19 6L20 6L20 7L21 7L21 6L20 6L20 5L19 5L19 4L20 4L20 3L21 3L21 2L18 2L18 1L20 1L20 0L17 0L17 1L16 1L16 0L12 0L12 1L11 1L11 2L9 2L9 1L10 1L10 0ZM13 1L13 3L12 3L12 4L9 4L9 5L10 5L10 6L9 6L9 7L10 7L10 6L11 6L11 5L12 5L12 6L13 6L13 3L14 3L14 1ZM16 2L16 4L17 4L17 2ZM14 4L14 6L15 6L15 7L16 7L16 6L17 6L17 7L18 7L18 6L19 6L19 5L16 5L16 6L15 6L15 4ZM0 8L0 10L1 10L1 9L2 9L2 8ZM16 8L16 9L18 9L18 8ZM20 8L20 9L21 9L21 11L22 11L22 9L25 9L25 10L23 10L23 11L26 11L26 12L25 12L25 13L26 13L26 12L27 12L27 13L29 13L29 11L28 11L28 10L26 10L26 9L28 9L28 8L26 8L26 9L25 9L25 8L22 8L22 9L21 9L21 8ZM4 10L4 11L5 11L5 12L7 12L7 11L5 11L5 10ZM15 10L15 11L14 11L14 12L13 12L13 13L14 13L14 14L13 14L13 15L14 15L14 14L15 14L15 16L17 16L17 18L18 18L18 17L19 17L19 19L23 19L23 20L24 20L24 19L23 19L23 18L21 18L21 17L19 17L19 16L20 16L20 14L19 14L19 15L18 15L18 13L20 13L20 12L18 12L18 11L19 11L19 10ZM17 12L17 13L16 13L16 15L17 15L17 16L18 16L18 15L17 15L17 13L18 13L18 12ZM0 13L0 14L1 14L1 13ZM10 14L10 15L11 15L11 16L12 16L12 14ZM6 16L6 17L7 17L7 16ZM0 18L0 19L1 19L1 18ZM8 18L8 19L6 19L6 20L8 20L8 21L11 21L11 20L10 20L10 19L9 19L9 18ZM14 18L14 20L13 20L13 21L14 21L14 22L15 22L15 23L14 23L14 24L15 24L15 27L16 27L16 26L17 26L17 27L18 27L18 26L19 26L19 25L20 25L20 20L18 20L18 22L19 22L19 23L17 23L17 22L16 22L16 21L14 21L14 20L16 20L16 18ZM0 20L0 21L1 21L1 20ZM25 20L25 21L26 21L26 20ZM21 21L21 24L24 24L24 21ZM10 22L10 23L11 23L11 22ZM22 22L22 23L23 23L23 22ZM16 23L16 25L18 25L18 24L17 24L17 23ZM23 26L23 27L24 27L24 26ZM27 26L27 27L25 27L25 28L27 28L27 27L28 27L28 26ZM0 0L0 7L7 7L7 0ZM1 1L1 6L6 6L6 1ZM2 2L2 5L5 5L5 2ZM29 0L22 0L22 7L29 7ZM28 1L23 1L23 6L28 6ZM27 2L24 2L24 5L27 5ZM0 29L7 29L7 22L0 22ZM1 28L6 28L6 23L1 23ZM2 27L5 27L5 24L2 24Z" fill="#000000"/></g></g></svg>
