<?xml version="1.0" encoding="UTF-8"?>
<svg xmlns="http://www.w3.org/2000/svg" version="1.1" width="300" height="300" viewBox="0 0 300 300"><rect x="0" y="0" width="300" height="300" fill="#fefefe"/><g transform="scale(8.108)"><g transform="translate(4.000,4.000)"><path fill-rule="evenodd" d="M8 0L8 1L9 1L9 2L8 2L8 5L9 5L9 4L11 4L11 5L10 5L10 10L9 10L9 8L8 8L8 10L6 10L6 9L7 9L7 8L6 8L6 9L4 9L4 8L0 8L0 10L2 10L2 11L0 11L0 13L1 13L1 14L2 14L2 16L3 16L3 14L4 14L4 15L5 15L5 14L6 14L6 15L7 15L7 14L8 14L8 15L9 15L9 14L8 14L8 11L9 11L9 13L11 13L11 16L9 16L9 17L10 17L10 18L8 18L8 17L7 17L7 16L6 16L6 17L5 17L5 16L4 16L4 17L5 17L5 19L3 19L3 18L2 18L2 20L1 20L1 21L7 21L7 20L6 20L6 19L8 19L8 20L9 20L9 19L11 19L11 20L10 20L10 22L9 22L9 21L8 21L8 22L9 22L9 25L8 25L8 29L12 29L12 28L14 28L14 27L15 27L15 26L14 26L14 25L13 25L13 26L12 26L12 24L15 24L15 25L16 25L16 27L18 27L18 28L19 28L19 29L21 29L21 28L20 28L20 25L21 25L21 26L22 26L22 25L24 25L24 26L23 26L23 27L22 27L22 29L24 29L24 26L25 26L25 25L26 25L26 24L25 24L25 21L26 21L26 23L28 23L28 24L27 24L27 25L28 25L28 27L27 27L27 28L26 28L26 27L25 27L25 28L26 28L26 29L28 29L28 27L29 27L29 23L28 23L28 22L27 22L27 21L26 21L26 20L27 20L27 17L28 17L28 16L29 16L29 14L28 14L28 12L29 12L29 11L28 11L28 10L29 10L29 8L28 8L28 9L27 9L27 8L24 8L24 9L22 9L22 8L20 8L20 7L21 7L21 5L19 5L19 4L18 4L18 3L17 3L17 2L19 2L19 3L20 3L20 4L21 4L21 1L20 1L20 0L19 0L19 1L17 1L17 2L13 2L13 0L12 0L12 1L11 1L11 0L10 0L10 1L9 1L9 0ZM14 0L14 1L15 1L15 0ZM19 1L19 2L20 2L20 1ZM11 2L11 4L12 4L12 3L13 3L13 2ZM16 3L16 4L17 4L17 3ZM12 5L12 6L11 6L11 8L12 8L12 6L13 6L13 8L16 8L16 9L15 9L15 10L14 10L14 9L13 9L13 11L11 11L11 13L12 13L12 12L13 12L13 11L14 11L14 12L16 12L16 11L17 11L17 12L18 12L18 13L16 13L16 14L15 14L15 13L13 13L13 14L12 14L12 16L11 16L11 19L12 19L12 20L11 20L11 22L10 22L10 24L11 24L11 23L14 23L14 22L15 22L15 23L17 23L17 24L18 24L18 25L20 25L20 23L19 23L19 22L20 22L20 20L21 20L21 18L18 18L18 17L17 17L17 18L16 18L16 19L15 19L15 20L16 20L16 21L13 21L13 18L15 18L15 17L16 17L16 16L19 16L19 17L20 17L20 15L19 15L19 14L18 14L18 13L19 13L19 12L20 12L20 14L21 14L21 15L22 15L22 19L23 19L23 20L25 20L25 19L26 19L26 17L27 17L27 16L28 16L28 15L27 15L27 14L26 14L26 16L25 16L25 13L27 13L27 11L26 11L26 10L27 10L27 9L26 9L26 10L22 10L22 9L20 9L20 10L19 10L19 11L18 11L18 10L16 10L16 9L18 9L18 8L17 8L17 7L18 7L18 6L19 6L19 7L20 7L20 6L19 6L19 5L18 5L18 6L17 6L17 7L16 7L16 5L15 5L15 7L14 7L14 5ZM8 6L8 7L9 7L9 6ZM2 9L2 10L3 10L3 11L2 11L2 12L1 12L1 13L2 13L2 14L3 14L3 12L5 12L5 13L4 13L4 14L5 14L5 13L6 13L6 14L7 14L7 13L6 13L6 12L7 12L7 11L6 11L6 10L4 10L4 9ZM11 9L11 10L12 10L12 9ZM21 10L21 11L20 11L20 12L25 12L25 11L22 11L22 10ZM21 13L21 14L22 14L22 15L24 15L24 14L22 14L22 13ZM14 14L14 15L15 15L15 16L14 16L14 17L15 17L15 16L16 16L16 15L15 15L15 14ZM0 15L0 17L1 17L1 15ZM12 16L12 17L13 17L13 16ZM23 16L23 19L24 19L24 17L25 17L25 16ZM6 17L6 18L7 18L7 17ZM0 18L0 19L1 19L1 18ZM17 18L17 21L16 21L16 22L17 22L17 21L19 21L19 20L20 20L20 19L19 19L19 20L18 20L18 18ZM28 19L28 20L29 20L29 19ZM21 21L21 24L24 24L24 21ZM22 22L22 23L23 23L23 22ZM18 23L18 24L19 24L19 23ZM9 26L9 28L10 28L10 27L11 27L11 28L12 28L12 26ZM13 26L13 27L14 27L14 26ZM18 26L18 27L19 27L19 26ZM16 28L16 29L17 29L17 28ZM0 0L0 7L7 7L7 0ZM1 1L1 6L6 6L6 1ZM2 2L2 5L5 5L5 2ZM29 0L22 0L22 7L29 7ZM28 1L23 1L23 6L28 6ZM27 2L24 2L24 5L27 5ZM0 29L7 29L7 22L0 22ZM1 28L6 28L6 23L1 23ZM2 27L5 27L5 24L2 24Z" fill="#000000"/></g></g></svg>
