<?xml version="1.0" encoding="UTF-8"?>
<svg xmlns="http://www.w3.org/2000/svg" version="1.1" width="300" height="300" viewBox="0 0 300 300"><rect x="0" y="0" width="300" height="300" fill="#fefefe"/><g transform="scale(8.108)"><g transform="translate(4.000,4.000)"><path fill-rule="evenodd" d="M8 0L8 1L9 1L9 2L8 2L8 5L9 5L9 4L11 4L11 5L10 5L10 10L8 10L8 9L9 9L9 8L8 8L8 9L7 9L7 8L6 8L6 9L4 9L4 8L0 8L0 9L2 9L2 10L0 10L0 11L5 11L5 12L6 12L6 13L7 13L7 14L5 14L5 13L3 13L3 12L2 12L2 13L0 13L0 14L4 14L4 15L3 15L3 16L2 16L2 15L1 15L1 16L0 16L0 17L1 17L1 18L0 18L0 19L1 19L1 18L2 18L2 20L1 20L1 21L2 21L2 20L3 20L3 19L5 19L5 20L6 20L6 21L7 21L7 20L8 20L8 19L9 19L9 21L8 21L8 22L9 22L9 25L8 25L8 29L9 29L9 28L10 28L10 26L12 26L12 28L11 28L11 29L12 29L12 28L14 28L14 27L15 27L15 28L16 28L16 27L15 27L15 26L17 26L17 27L18 27L18 28L17 28L17 29L19 29L19 28L20 28L20 29L22 29L22 28L23 28L23 27L24 27L24 28L25 28L25 29L26 29L26 27L27 27L27 29L28 29L28 27L29 27L29 23L28 23L28 22L29 22L29 21L28 21L28 20L27 20L27 18L26 18L26 16L25 16L25 15L24 15L24 14L23 14L23 13L22 13L22 14L21 14L21 12L20 12L20 11L22 11L22 12L23 12L23 11L24 11L24 12L25 12L25 13L28 13L28 14L27 14L27 17L28 17L28 18L29 18L29 16L28 16L28 15L29 15L29 11L28 11L28 9L29 9L29 8L28 8L28 9L27 9L27 8L24 8L24 9L23 9L23 11L22 11L22 10L21 10L21 9L22 9L22 8L21 8L21 9L20 9L20 7L21 7L21 6L20 6L20 5L19 5L19 4L16 4L16 5L18 5L18 7L17 7L17 6L16 6L16 7L17 7L17 11L14 11L14 10L15 10L15 8L13 8L13 6L14 6L14 7L15 7L15 5L13 5L13 3L14 3L14 4L15 4L15 3L14 3L14 2L15 2L15 0L14 0L14 1L13 1L13 0L12 0L12 1L11 1L11 0L10 0L10 1L9 1L9 0ZM19 0L19 1L21 1L21 0ZM11 2L11 4L12 4L12 3L13 3L13 2ZM19 2L19 3L20 3L20 2ZM12 5L12 6L11 6L11 8L12 8L12 6L13 6L13 5ZM8 6L8 7L9 7L9 6ZM19 6L19 7L20 7L20 6ZM18 8L18 11L17 11L17 12L15 12L15 15L14 15L14 12L13 12L13 11L11 11L11 13L9 13L9 11L8 11L8 12L7 12L7 11L6 11L6 12L7 12L7 13L9 13L9 14L10 14L10 15L6 15L6 16L5 16L5 15L4 15L4 16L3 16L3 17L4 17L4 16L5 16L5 17L6 17L6 18L7 18L7 19L6 19L6 20L7 20L7 19L8 19L8 18L9 18L9 17L8 17L8 16L10 16L10 20L11 20L11 21L10 21L10 25L11 25L11 23L14 23L14 22L15 22L15 23L16 23L16 25L17 25L17 26L18 26L18 27L23 27L23 25L22 25L22 26L20 26L20 22L19 22L19 21L20 21L20 19L21 19L21 18L22 18L22 20L23 20L23 16L24 16L24 18L25 18L25 16L24 16L24 15L23 15L23 14L22 14L22 15L17 15L17 14L16 14L16 13L17 13L17 12L18 12L18 11L20 11L20 10L19 10L19 8ZM6 9L6 10L7 10L7 9ZM11 9L11 10L12 10L12 9ZM13 9L13 10L14 10L14 9ZM25 10L25 12L28 12L28 11L27 11L27 10ZM12 12L12 13L11 13L11 16L12 16L12 17L13 17L13 16L12 16L12 14L13 14L13 12ZM19 12L19 13L20 13L20 12ZM15 15L15 16L14 16L14 17L16 17L16 15ZM22 15L22 16L21 16L21 17L22 17L22 16L23 16L23 15ZM6 16L6 17L7 17L7 16ZM17 16L17 21L16 21L16 20L15 20L15 19L16 19L16 18L13 18L13 21L16 21L16 22L17 22L17 23L18 23L18 24L17 24L17 25L18 25L18 26L19 26L19 25L18 25L18 24L19 24L19 23L18 23L18 19L19 19L19 18L18 18L18 17L20 17L20 16ZM11 19L11 20L12 20L12 19ZM21 21L21 24L24 24L24 21ZM26 21L26 23L25 23L25 25L24 25L24 27L26 27L26 26L27 26L27 27L28 27L28 25L26 25L26 24L28 24L28 23L27 23L27 21ZM22 22L22 23L23 23L23 22ZM12 24L12 26L13 26L13 27L14 27L14 26L15 26L15 24ZM13 25L13 26L14 26L14 25ZM25 25L25 26L26 26L26 25ZM0 0L0 7L7 7L7 0ZM1 1L1 6L6 6L6 1ZM2 2L2 5L5 5L5 2ZM29 0L22 0L22 7L29 7ZM28 1L23 1L23 6L28 6ZM27 2L24 2L24 5L27 5ZM0 29L7 29L7 22L0 22ZM1 28L6 28L6 23L1 23ZM2 27L5 27L5 24L2 24Z" fill="#000000"/></g></g></svg>
