<?xml version="1.0" encoding="UTF-8"?>
<svg xmlns="http://www.w3.org/2000/svg" version="1.1" width="300" height="300" viewBox="0 0 300 300"><rect x="0" y="0" width="300" height="300" fill="#fefefe"/><g transform="scale(8.108)"><g transform="translate(4.000,4.000)"><path fill-rule="evenodd" d="M10 0L10 2L11 2L11 0ZM12 0L12 1L13 1L13 2L12 2L12 4L13 4L13 5L11 5L11 6L10 6L10 4L11 4L11 3L8 3L8 4L9 4L9 5L8 5L8 7L9 7L9 8L6 8L6 9L5 9L5 8L0 8L0 9L1 9L1 10L0 10L0 11L2 11L2 12L1 12L1 13L2 13L2 14L1 14L1 15L3 15L3 16L2 16L2 20L4 20L4 19L7 19L7 18L8 18L8 16L9 16L9 17L10 17L10 18L9 18L9 19L10 19L10 20L11 20L11 19L10 19L10 18L11 18L11 17L12 17L12 18L13 18L13 19L12 19L12 21L13 21L13 20L14 20L14 21L15 21L15 23L14 23L14 24L15 24L15 25L12 25L12 23L13 23L13 22L11 22L11 21L10 21L10 22L11 22L11 23L9 23L9 20L8 20L8 23L9 23L9 24L8 24L8 29L9 29L9 26L10 26L10 28L11 28L11 26L10 26L10 25L9 25L9 24L11 24L11 25L12 25L12 26L13 26L13 27L12 27L12 29L13 29L13 28L14 28L14 29L15 29L15 28L17 28L17 29L18 29L18 28L19 28L19 29L20 29L20 28L21 28L21 29L23 29L23 28L22 28L22 27L19 27L19 26L20 26L20 25L25 25L25 26L23 26L23 27L25 27L25 26L26 26L26 27L27 27L27 28L24 28L24 29L27 29L27 28L28 28L28 26L29 26L29 24L28 24L28 23L27 23L27 25L25 25L25 24L26 24L26 23L25 23L25 20L26 20L26 17L28 17L28 18L27 18L27 19L28 19L28 20L29 20L29 19L28 19L28 18L29 18L29 16L25 16L25 17L24 17L24 16L23 16L23 15L20 15L20 18L21 18L21 19L25 19L25 20L20 20L20 19L19 19L19 18L18 18L18 16L19 16L19 14L20 14L20 13L21 13L21 12L22 12L22 11L25 11L25 12L26 12L26 13L23 13L23 14L25 14L25 15L27 15L27 14L28 14L28 12L29 12L29 11L27 11L27 10L29 10L29 9L28 9L28 8L27 8L27 10L25 10L25 9L26 9L26 8L25 8L25 9L24 9L24 8L23 8L23 10L21 10L21 9L22 9L22 8L17 8L17 6L16 6L16 5L18 5L18 7L19 7L19 5L20 5L20 7L21 7L21 4L20 4L20 3L21 3L21 2L19 2L19 5L18 5L18 3L17 3L17 4L16 4L16 3L15 3L15 4L14 4L14 3L13 3L13 2L17 2L17 1L19 1L19 0L16 0L16 1L15 1L15 0L14 0L14 1L13 1L13 0ZM20 0L20 1L21 1L21 0ZM8 1L8 2L9 2L9 1ZM15 4L15 5L13 5L13 7L12 7L12 6L11 6L11 7L12 7L12 9L11 9L11 8L10 8L10 9L6 9L6 10L8 10L8 11L9 11L9 12L8 12L8 14L9 14L9 12L11 12L11 13L10 13L10 14L13 14L13 15L12 15L12 17L14 17L14 18L16 18L16 19L14 19L14 20L16 20L16 19L17 19L17 20L18 20L18 21L17 21L17 22L18 22L18 23L17 23L17 25L20 25L20 24L18 24L18 23L19 23L19 22L20 22L20 20L19 20L19 19L18 19L18 18L16 18L16 17L15 17L15 16L18 16L18 15L15 15L15 14L19 14L19 13L20 13L20 12L21 12L21 11L20 11L20 9L17 9L17 8L16 8L16 6L15 6L15 5L16 5L16 4ZM9 6L9 7L10 7L10 6ZM14 6L14 8L13 8L13 9L12 9L12 10L13 10L13 11L12 11L12 13L13 13L13 14L14 14L14 13L17 13L17 11L19 11L19 10L17 10L17 9L15 9L15 6ZM3 9L3 10L2 10L2 11L3 11L3 10L4 10L4 11L5 11L5 12L7 12L7 11L5 11L5 9ZM10 9L10 11L11 11L11 9ZM14 9L14 10L15 10L15 9ZM13 11L13 12L14 12L14 11ZM26 11L26 12L27 12L27 11ZM2 12L2 13L4 13L4 15L5 15L5 16L3 16L3 17L4 17L4 18L5 18L5 17L6 17L6 18L7 18L7 17L6 17L6 16L8 16L8 15L6 15L6 14L7 14L7 13L4 13L4 12ZM26 13L26 14L27 14L27 13ZM9 15L9 16L10 16L10 17L11 17L11 16L10 16L10 15ZM14 15L14 16L15 16L15 15ZM0 16L0 21L1 21L1 16ZM22 16L22 17L21 17L21 18L22 18L22 17L23 17L23 16ZM6 20L6 21L7 21L7 20ZM21 21L21 24L24 24L24 21ZM26 21L26 22L29 22L29 21ZM22 22L22 23L23 23L23 22ZM15 25L15 26L16 26L16 25ZM17 26L17 28L18 28L18 26ZM14 27L14 28L15 28L15 27ZM0 0L0 7L7 7L7 0ZM1 1L1 6L6 6L6 1ZM2 2L2 5L5 5L5 2ZM29 0L22 0L22 7L29 7ZM28 1L23 1L23 6L28 6ZM27 2L24 2L24 5L27 5ZM0 29L7 29L7 22L0 22ZM1 28L6 28L6 23L1 23ZM2 27L5 27L5 24L2 24Z" fill="#000000"/></g></g></svg>
