<?xml version="1.0" encoding="UTF-8"?>
<svg xmlns="http://www.w3.org/2000/svg" version="1.1" width="300" height="300" viewBox="0 0 300 300"><rect x="0" y="0" width="300" height="300" fill="#fefefe"/><g transform="scale(8.108)"><g transform="translate(4.000,4.000)"><path fill-rule="evenodd" d="M8 0L8 1L9 1L9 2L8 2L8 5L9 5L9 4L11 4L11 5L10 5L10 10L9 10L9 8L8 8L8 10L6 10L6 11L4 11L4 12L6 12L6 13L5 13L5 14L4 14L4 13L3 13L3 14L2 14L2 13L1 13L1 12L0 12L0 14L2 14L2 15L4 15L4 16L0 16L0 17L4 17L4 18L2 18L2 20L1 20L1 21L7 21L7 20L8 20L8 22L10 22L10 23L9 23L9 25L8 25L8 29L10 29L10 28L9 28L9 27L11 27L11 26L12 26L12 28L11 28L11 29L12 29L12 28L14 28L14 27L15 27L15 29L22 29L22 28L26 28L26 27L27 27L27 29L28 29L28 27L29 27L29 23L28 23L28 22L29 22L29 21L28 21L28 19L25 19L25 20L24 20L24 14L22 14L22 13L21 13L21 15L22 15L22 16L21 16L21 19L22 19L22 20L18 20L18 18L17 18L17 17L20 17L20 16L17 16L17 14L18 14L18 15L20 15L20 12L21 12L21 11L22 11L22 8L21 8L21 9L20 9L20 8L19 8L19 6L20 6L20 7L21 7L21 3L20 3L20 2L21 2L21 1L20 1L20 0L19 0L19 1L20 1L20 2L19 2L19 3L17 3L17 2L18 2L18 0L14 0L14 1L13 1L13 0L12 0L12 1L11 1L11 0L10 0L10 1L9 1L9 0ZM14 1L14 3L13 3L13 2L11 2L11 4L12 4L12 3L13 3L13 5L12 5L12 6L11 6L11 8L12 8L12 6L13 6L13 8L15 8L15 10L14 10L14 9L13 9L13 11L11 11L11 13L10 13L10 14L11 14L11 13L12 13L12 12L13 12L13 11L16 11L16 9L17 9L17 10L18 10L18 11L17 11L17 13L16 13L16 14L15 14L15 12L14 12L14 13L13 13L13 14L12 14L12 16L9 16L9 18L10 18L10 19L12 19L12 20L11 20L11 23L10 23L10 25L9 25L9 26L11 26L11 23L14 23L14 22L15 22L15 23L17 23L17 24L16 24L16 25L15 25L15 24L12 24L12 26L13 26L13 27L14 27L14 26L15 26L15 27L16 27L16 28L18 28L18 27L19 27L19 28L20 28L20 23L19 23L19 22L20 22L20 21L18 21L18 20L17 20L17 18L16 18L16 20L17 20L17 21L18 21L18 22L16 22L16 21L13 21L13 18L15 18L15 17L16 17L16 16L15 16L15 15L16 15L16 14L17 14L17 13L18 13L18 14L19 14L19 12L18 12L18 11L21 11L21 10L19 10L19 9L18 9L18 8L17 8L17 7L18 7L18 5L14 5L14 3L15 3L15 4L17 4L17 3L16 3L16 1ZM13 5L13 6L14 6L14 7L15 7L15 8L16 8L16 7L17 7L17 6L16 6L16 7L15 7L15 6L14 6L14 5ZM8 6L8 7L9 7L9 6ZM0 8L0 9L1 9L1 10L0 10L0 11L2 11L2 12L3 12L3 11L2 11L2 9L3 9L3 10L4 10L4 8ZM6 8L6 9L7 9L7 8ZM24 8L24 9L23 9L23 10L25 10L25 11L27 11L27 10L26 10L26 9L27 9L27 8ZM28 8L28 10L29 10L29 8ZM11 9L11 10L12 10L12 9ZM6 11L6 12L7 12L7 11ZM8 11L8 15L5 15L5 16L8 16L8 15L9 15L9 11ZM28 11L28 12L27 12L27 13L26 13L26 12L23 12L23 13L26 13L26 14L27 14L27 16L28 16L28 15L29 15L29 14L28 14L28 12L29 12L29 11ZM6 13L6 14L7 14L7 13ZM13 14L13 15L15 15L15 14ZM25 15L25 16L26 16L26 15ZM12 16L12 17L13 17L13 16ZM14 16L14 17L15 17L15 16ZM22 16L22 17L23 17L23 16ZM6 17L6 18L5 18L5 19L4 19L4 20L5 20L5 19L6 19L6 20L7 20L7 19L8 19L8 17ZM10 17L10 18L11 18L11 17ZM27 17L27 18L29 18L29 17ZM0 18L0 19L1 19L1 18ZM6 18L6 19L7 19L7 18ZM22 18L22 19L23 19L23 18ZM25 20L25 22L27 22L27 20ZM21 21L21 24L24 24L24 21ZM22 22L22 23L23 23L23 22ZM26 23L26 24L28 24L28 23ZM13 25L13 26L14 26L14 25ZM16 25L16 26L17 26L17 27L18 27L18 26L19 26L19 25L18 25L18 26L17 26L17 25ZM22 25L22 26L21 26L21 28L22 28L22 26L23 26L23 25ZM27 25L27 27L28 27L28 25ZM24 26L24 27L25 27L25 26ZM0 0L0 7L7 7L7 0ZM1 1L1 6L6 6L6 1ZM2 2L2 5L5 5L5 2ZM29 0L22 0L22 7L29 7ZM28 1L23 1L23 6L28 6ZM27 2L24 2L24 5L27 5ZM0 29L7 29L7 22L0 22ZM1 28L6 28L6 23L1 23ZM2 27L5 27L5 24L2 24Z" fill="#000000"/></g></g></svg>
