<?xml version="1.0" encoding="UTF-8"?>
<svg xmlns="http://www.w3.org/2000/svg" version="1.1" width="300" height="300" viewBox="0 0 300 300"><rect x="0" y="0" width="300" height="300" fill="#fefefe"/><g transform="scale(8.108)"><g transform="translate(4.000,4.000)"><path fill-rule="evenodd" d="M9 0L9 1L10 1L10 2L8 2L8 3L9 3L9 4L10 4L10 5L9 5L9 6L8 6L8 8L4 8L4 10L3 10L3 8L0 8L0 10L1 10L1 12L0 12L0 13L1 13L1 12L2 12L2 14L0 14L0 15L1 15L1 17L3 17L3 16L2 16L2 15L3 15L3 12L4 12L4 17L5 17L5 18L6 18L6 19L7 19L7 20L6 20L6 21L7 21L7 20L8 20L8 25L10 25L10 24L9 24L9 21L11 21L11 23L12 23L12 24L11 24L11 26L8 26L8 29L9 29L9 27L11 27L11 28L12 28L12 29L13 29L13 28L12 28L12 27L11 27L11 26L12 26L12 24L14 24L14 26L13 26L13 27L14 27L14 26L15 26L15 24L16 24L16 23L15 23L15 22L17 22L17 25L16 25L16 26L17 26L17 28L16 28L16 29L18 29L18 28L19 28L19 29L21 29L21 28L22 28L22 29L25 29L25 27L27 27L27 28L26 28L26 29L29 29L29 28L28 28L28 27L29 27L29 25L27 25L27 26L24 26L24 25L26 25L26 23L27 23L27 24L28 24L28 23L29 23L29 22L26 22L26 23L25 23L25 19L24 19L24 18L22 18L22 20L21 20L21 19L20 19L20 21L19 21L19 22L18 22L18 19L19 19L19 18L18 18L18 19L17 19L17 17L18 17L18 14L19 14L19 13L20 13L20 14L21 14L21 15L20 15L20 16L19 16L19 17L20 17L20 18L21 18L21 17L25 17L25 18L26 18L26 19L29 19L29 18L26 18L26 17L27 17L27 16L24 16L24 15L25 15L25 14L26 14L26 13L25 13L25 14L23 14L23 13L24 13L24 11L25 11L25 10L27 10L27 11L29 11L29 10L28 10L28 9L27 9L27 8L26 8L26 9L25 9L25 10L23 10L23 11L21 11L21 9L23 9L23 8L21 8L21 5L20 5L20 3L21 3L21 1L19 1L19 2L18 2L18 3L17 3L17 4L18 4L18 5L15 5L15 6L14 6L14 4L15 4L15 3L16 3L16 2L17 2L17 1L15 1L15 0L14 0L14 1L13 1L13 0L12 0L12 1L10 1L10 0ZM11 2L11 3L12 3L12 4L11 4L11 5L10 5L10 6L9 6L9 7L10 7L10 6L11 6L11 8L12 8L12 10L10 10L10 8L9 8L9 9L5 9L5 10L4 10L4 11L5 11L5 12L8 12L8 13L10 13L10 14L7 14L7 13L6 13L6 14L5 14L5 16L7 16L7 17L6 17L6 18L7 18L7 17L8 17L8 19L10 19L10 20L11 20L11 21L12 21L12 20L13 20L13 21L14 21L14 22L13 22L13 23L14 23L14 22L15 22L15 20L16 20L16 17L14 17L14 16L16 16L16 15L17 15L17 14L16 14L16 13L19 13L19 11L20 11L20 13L21 13L21 14L22 14L22 12L21 12L21 11L20 11L20 9L21 9L21 8L20 8L20 6L19 6L19 8L18 8L18 9L17 9L17 7L18 7L18 6L17 6L17 7L16 7L16 6L15 6L15 7L16 7L16 8L14 8L14 9L15 9L15 10L13 10L13 8L12 8L12 6L13 6L13 7L14 7L14 6L13 6L13 4L14 4L14 3L15 3L15 2L13 2L13 3L12 3L12 2ZM19 2L19 3L20 3L20 2ZM1 9L1 10L2 10L2 11L3 11L3 10L2 10L2 9ZM16 9L16 11L15 11L15 13L13 13L13 12L14 12L14 11L13 11L13 12L12 12L12 11L11 11L11 12L12 12L12 13L11 13L11 15L12 15L12 16L11 16L11 17L10 17L10 19L11 19L11 20L12 20L12 19L11 19L11 18L12 18L12 16L14 16L14 15L13 15L13 14L15 14L15 13L16 13L16 11L17 11L17 12L18 12L18 11L19 11L19 10L17 10L17 9ZM6 10L6 11L8 11L8 12L9 12L9 11L10 11L10 10ZM27 12L27 13L28 13L28 15L29 15L29 12ZM6 14L6 15L7 15L7 16L8 16L8 17L9 17L9 16L8 16L8 15L7 15L7 14ZM0 18L0 19L1 19L1 20L0 20L0 21L1 21L1 20L2 20L2 21L3 21L3 19L4 19L4 18L3 18L3 19L1 19L1 18ZM13 18L13 19L14 19L14 18ZM23 19L23 20L24 20L24 19ZM26 20L26 21L29 21L29 20ZM21 21L21 24L24 24L24 21ZM19 22L19 24L18 24L18 25L17 25L17 26L18 26L18 27L19 27L19 26L20 26L20 22ZM22 22L22 23L23 23L23 22ZM21 25L21 27L23 27L23 25ZM27 26L27 27L28 27L28 26ZM0 0L0 7L7 7L7 0ZM1 1L1 6L6 6L6 1ZM2 2L2 5L5 5L5 2ZM29 0L22 0L22 7L29 7ZM28 1L23 1L23 6L28 6ZM27 2L24 2L24 5L27 5ZM0 29L7 29L7 22L0 22ZM1 28L6 28L6 23L1 23ZM2 27L5 27L5 24L2 24Z" fill="#000000"/></g></g></svg>
