<?xml version="1.0" encoding="UTF-8"?>
<svg xmlns="http://www.w3.org/2000/svg" version="1.1" width="300" height="300" viewBox="0 0 300 300"><rect x="0" y="0" width="300" height="300" fill="#fefefe"/><g transform="scale(8.108)"><g transform="translate(4.000,4.000)"><path fill-rule="evenodd" d="M8 0L8 1L9 1L9 2L8 2L8 5L9 5L9 4L11 4L11 5L10 5L10 10L9 10L9 8L8 8L8 13L7 13L7 12L6 12L6 13L7 13L7 14L6 14L6 15L7 15L7 14L8 14L8 13L11 13L11 16L10 16L10 14L9 14L9 16L10 16L10 17L9 17L9 19L8 19L8 20L6 20L6 19L7 19L7 18L8 18L8 17L7 17L7 16L6 16L6 17L7 17L7 18L5 18L5 19L4 19L4 17L5 17L5 16L4 16L4 17L2 17L2 16L3 16L3 14L4 14L4 15L5 15L5 13L4 13L4 12L5 12L5 10L6 10L6 11L7 11L7 10L6 10L6 9L7 9L7 8L6 8L6 9L4 9L4 8L0 8L0 10L1 10L1 9L3 9L3 10L2 10L2 12L1 12L1 11L0 11L0 12L1 12L1 16L0 16L0 17L1 17L1 18L0 18L0 19L1 19L1 18L3 18L3 20L1 20L1 21L4 21L4 20L5 20L5 21L8 21L8 22L9 22L9 23L10 23L10 24L9 24L9 25L8 25L8 29L9 29L9 28L11 28L11 29L12 29L12 28L14 28L14 27L15 27L15 28L16 28L16 29L19 29L19 28L20 28L20 29L21 29L21 27L22 27L22 26L21 26L21 25L25 25L25 26L27 26L27 25L28 25L28 27L27 27L27 28L26 28L26 27L25 27L25 28L22 28L22 29L28 29L28 27L29 27L29 23L28 23L28 22L26 22L26 21L27 21L27 18L28 18L28 17L27 17L27 16L29 16L29 13L28 13L28 12L29 12L29 11L28 11L28 10L26 10L26 9L27 9L27 8L24 8L24 9L23 9L23 10L22 10L22 8L21 8L21 6L20 6L20 5L19 5L19 6L18 6L18 3L19 3L19 2L18 2L18 3L17 3L17 1L21 1L21 0L16 0L16 3L15 3L15 0L12 0L12 1L11 1L11 0L10 0L10 1L9 1L9 0ZM13 1L13 2L11 2L11 4L12 4L12 3L13 3L13 2L14 2L14 1ZM20 2L20 4L21 4L21 2ZM14 3L14 4L13 4L13 5L12 5L12 6L11 6L11 8L12 8L12 6L13 6L13 11L11 11L11 13L12 13L12 12L13 12L13 11L14 11L14 12L15 12L15 11L16 11L16 12L17 12L17 13L16 13L16 14L15 14L15 13L13 13L13 14L12 14L12 16L11 16L11 19L9 19L9 20L8 20L8 21L9 21L9 20L11 20L11 23L14 23L14 22L15 22L15 24L12 24L12 26L9 26L9 27L11 27L11 28L12 28L12 26L13 26L13 27L14 27L14 26L15 26L15 27L16 27L16 25L15 25L15 24L18 24L18 25L17 25L17 28L19 28L19 27L21 27L21 26L20 26L20 23L19 23L19 22L20 22L20 21L18 21L18 20L17 20L17 22L16 22L16 21L13 21L13 18L15 18L15 17L14 17L14 16L15 16L15 15L16 15L16 14L17 14L17 16L16 16L16 18L17 18L17 19L19 19L19 20L20 20L20 15L19 15L19 14L17 14L17 13L20 13L20 11L21 11L21 10L19 10L19 9L21 9L21 8L19 8L19 7L20 7L20 6L19 6L19 7L18 7L18 6L17 6L17 5L15 5L15 3ZM14 5L14 8L15 8L15 9L14 9L14 11L15 11L15 9L16 9L16 10L17 10L17 11L18 11L18 12L19 12L19 11L18 11L18 9L19 9L19 8L18 8L18 7L17 7L17 6L16 6L16 7L17 7L17 9L16 9L16 8L15 8L15 5ZM8 6L8 7L9 7L9 6ZM28 8L28 9L29 9L29 8ZM11 9L11 10L12 10L12 9ZM24 10L24 11L23 11L23 12L21 12L21 13L23 13L23 14L24 14L24 15L21 15L21 16L22 16L22 17L21 17L21 18L23 18L23 16L24 16L24 18L25 18L25 21L26 21L26 18L27 18L27 17L26 17L26 18L25 18L25 14L26 14L26 13L27 13L27 14L28 14L28 13L27 13L27 11L26 11L26 10ZM3 11L3 12L2 12L2 13L3 13L3 12L4 12L4 11ZM24 11L24 13L25 13L25 11ZM13 14L13 15L15 15L15 14ZM26 15L26 16L27 16L27 15ZM12 16L12 17L13 17L13 16ZM18 16L18 18L19 18L19 16ZM11 19L11 20L12 20L12 19ZM22 19L22 20L23 20L23 19ZM28 19L28 20L29 20L29 19ZM21 21L21 24L24 24L24 21ZM17 22L17 23L18 23L18 22ZM22 22L22 23L23 23L23 22ZM25 22L25 23L26 23L26 24L28 24L28 23L26 23L26 22ZM10 24L10 25L11 25L11 24ZM13 25L13 26L14 26L14 25ZM18 26L18 27L19 27L19 26ZM23 26L23 27L24 27L24 26ZM0 0L0 7L7 7L7 0ZM1 1L1 6L6 6L6 1ZM2 2L2 5L5 5L5 2ZM29 0L22 0L22 7L29 7ZM28 1L23 1L23 6L28 6ZM27 2L24 2L24 5L27 5ZM0 29L7 29L7 22L0 22ZM1 28L6 28L6 23L1 23ZM2 27L5 27L5 24L2 24Z" fill="#000000"/></g></g></svg>
