<?xml version="1.0" encoding="UTF-8"?>
<svg xmlns="http://www.w3.org/2000/svg" version="1.1" width="300" height="300" viewBox="0 0 300 300"><rect x="0" y="0" width="300" height="300" fill="#fefefe"/><g transform="scale(8.108)"><g transform="translate(4.000,4.000)"><path fill-rule="evenodd" d="M9 0L9 1L8 1L8 3L9 3L9 4L8 4L8 8L6 8L6 9L5 9L5 10L4 10L4 8L3 8L3 9L2 9L2 8L0 8L0 14L1 14L1 15L2 15L2 16L3 16L3 17L2 17L2 18L3 18L3 17L4 17L4 18L5 18L5 19L3 19L3 20L2 20L2 21L4 21L4 20L6 20L6 21L8 21L8 23L9 23L9 22L10 22L10 23L11 23L11 24L10 24L10 25L8 25L8 26L9 26L9 27L8 27L8 29L9 29L9 27L11 27L11 28L12 28L12 29L14 29L14 28L12 28L12 24L14 24L14 25L13 25L13 27L15 27L15 28L16 28L16 29L17 29L17 28L18 28L18 27L17 27L17 26L18 26L18 24L20 24L20 25L19 25L19 26L20 26L20 27L21 27L21 28L20 28L20 29L21 29L21 28L22 28L22 29L23 29L23 28L24 28L24 27L26 27L26 25L27 25L27 26L28 26L28 27L27 27L27 28L26 28L26 29L28 29L28 27L29 27L29 26L28 26L28 25L27 25L27 24L28 24L28 22L29 22L29 21L28 21L28 22L27 22L27 21L25 21L25 20L26 20L26 19L28 19L28 20L29 20L29 18L28 18L28 16L29 16L29 11L28 11L28 10L29 10L29 9L28 9L28 8L26 8L26 9L27 9L27 10L26 10L26 11L25 11L25 10L24 10L24 11L23 11L23 10L22 10L22 9L25 9L25 8L22 8L22 9L21 9L21 5L20 5L20 4L21 4L21 3L20 3L20 2L19 2L19 0L18 0L18 1L17 1L17 2L16 2L16 0L14 0L14 2L16 2L16 3L18 3L18 4L19 4L19 5L17 5L17 4L16 4L16 5L14 5L14 4L15 4L15 3L13 3L13 0L12 0L12 1L11 1L11 2L9 2L9 1L10 1L10 0ZM18 2L18 3L19 3L19 2ZM12 3L12 4L9 4L9 5L10 5L10 6L9 6L9 7L10 7L10 8L8 8L8 9L6 9L6 10L8 10L8 11L9 11L9 12L7 12L7 11L3 11L3 10L1 10L1 11L2 11L2 12L5 12L5 13L4 13L4 14L2 14L2 15L3 15L3 16L4 16L4 14L5 14L5 13L6 13L6 14L7 14L7 15L5 15L5 16L7 16L7 17L6 17L6 18L8 18L8 16L7 16L7 15L9 15L9 13L12 13L12 12L13 12L13 11L14 11L14 13L13 13L13 15L14 15L14 14L15 14L15 15L16 15L16 14L17 14L17 15L18 15L18 16L17 16L17 19L18 19L18 20L16 20L16 16L15 16L15 18L14 18L14 17L13 17L13 16L12 16L12 14L11 14L11 16L12 16L12 17L11 17L11 18L9 18L9 19L12 19L12 20L13 20L13 21L14 21L14 22L15 22L15 23L14 23L14 24L15 24L15 25L16 25L16 26L15 26L15 27L16 27L16 26L17 26L17 25L16 25L16 24L15 24L15 23L17 23L17 24L18 24L18 20L23 20L23 19L21 19L21 16L22 16L22 17L24 17L24 18L25 18L25 19L26 19L26 18L25 18L25 17L27 17L27 14L26 14L26 13L27 13L27 12L26 12L26 13L23 13L23 15L21 15L21 14L20 14L20 13L21 13L21 12L23 12L23 11L21 11L21 10L20 10L20 11L19 11L19 12L18 12L18 11L16 11L16 9L17 9L17 10L19 10L19 9L20 9L20 6L19 6L19 7L18 7L18 6L17 6L17 5L16 5L16 6L15 6L15 7L16 7L16 6L17 6L17 7L18 7L18 8L16 8L16 9L15 9L15 10L13 10L13 8L14 8L14 5L13 5L13 3ZM11 5L11 6L10 6L10 7L11 7L11 6L12 6L12 8L13 8L13 6L12 6L12 5ZM10 8L10 10L9 10L9 9L8 9L8 10L9 10L9 11L11 11L11 10L12 10L12 9L11 9L11 8ZM15 11L15 12L16 12L16 13L15 13L15 14L16 14L16 13L17 13L17 12L16 12L16 11ZM24 11L24 12L25 12L25 11ZM6 12L6 13L7 13L7 14L8 14L8 13L7 13L7 12ZM25 14L25 15L26 15L26 14ZM19 15L19 18L20 18L20 15ZM0 16L0 17L1 17L1 16ZM9 16L9 17L10 17L10 16ZM24 16L24 17L25 17L25 16ZM0 18L0 19L1 19L1 18ZM13 18L13 20L14 20L14 21L15 21L15 22L17 22L17 21L15 21L15 20L14 20L14 18ZM6 19L6 20L8 20L8 19ZM0 20L0 21L1 21L1 20ZM9 20L9 21L11 21L11 20ZM19 21L19 23L20 23L20 21ZM21 21L21 24L24 24L24 21ZM22 22L22 23L23 23L23 22ZM25 22L25 25L26 25L26 22ZM20 25L20 26L21 26L21 27L22 27L22 25ZM23 25L23 27L24 27L24 25ZM0 0L0 7L7 7L7 0ZM1 1L1 6L6 6L6 1ZM2 2L2 5L5 5L5 2ZM29 0L22 0L22 7L29 7ZM28 1L23 1L23 6L28 6ZM27 2L24 2L24 5L27 5ZM0 29L7 29L7 22L0 22ZM1 28L6 28L6 23L1 23ZM2 27L5 27L5 24L2 24Z" fill="#000000"/></g></g></svg>
