<?xml version="1.0" encoding="UTF-8"?>
<svg xmlns="http://www.w3.org/2000/svg" version="1.1" width="300" height="300" viewBox="0 0 300 300"><rect x="0" y="0" width="300" height="300" fill="#fefefe"/><g transform="scale(8.108)"><g transform="translate(4.000,4.000)"><path fill-rule="evenodd" d="M10 0L10 2L11 2L11 0ZM12 0L12 1L15 1L15 2L14 2L14 3L13 3L13 2L12 2L12 4L15 4L15 6L14 6L14 5L11 5L11 6L10 6L10 4L11 4L11 3L8 3L8 4L9 4L9 5L8 5L8 7L9 7L9 8L6 8L6 9L10 9L10 11L11 11L11 9L12 9L12 10L13 10L13 9L14 9L14 14L10 14L10 13L11 13L11 12L9 12L9 10L8 10L8 13L7 13L7 12L4 12L4 11L2 11L2 10L4 10L4 9L5 9L5 8L0 8L0 9L2 9L2 10L0 10L0 11L2 11L2 12L0 12L0 13L1 13L1 15L2 15L2 16L0 16L0 21L1 21L1 17L3 17L3 18L2 18L2 20L3 20L3 18L4 18L4 19L5 19L5 20L4 20L4 21L5 21L5 20L6 20L6 21L8 21L8 23L9 23L9 24L8 24L8 29L11 29L11 28L9 28L9 26L11 26L11 25L12 25L12 26L13 26L13 27L12 27L12 29L13 29L13 28L14 28L14 29L18 29L18 28L19 28L19 29L20 29L20 28L22 28L22 26L21 26L21 25L23 25L23 26L24 26L24 27L23 27L23 29L24 29L24 28L26 28L26 29L27 29L27 28L28 28L28 26L29 26L29 24L28 24L28 23L27 23L27 22L26 22L26 21L27 21L27 20L28 20L28 19L27 19L27 18L29 18L29 17L27 17L27 16L29 16L29 15L27 15L27 16L26 16L26 14L29 14L29 11L28 11L28 13L25 13L25 12L26 12L26 11L27 11L27 9L28 9L28 8L27 8L27 9L26 9L26 8L25 8L25 9L24 9L24 8L23 8L23 10L24 10L24 11L25 11L25 12L23 12L23 11L22 11L22 12L23 12L23 13L19 13L19 12L16 12L16 10L17 10L17 9L18 9L18 8L21 8L21 9L19 9L19 10L20 10L20 11L21 11L21 9L22 9L22 8L21 8L21 6L20 6L20 7L19 7L19 4L20 4L20 5L21 5L21 3L19 3L19 1L20 1L20 2L21 2L21 0L18 0L18 1L17 1L17 0ZM8 1L8 2L9 2L9 1ZM17 2L17 3L15 3L15 4L17 4L17 3L18 3L18 4L19 4L19 3L18 3L18 2ZM16 5L16 6L15 6L15 7L16 7L16 6L17 6L17 8L15 8L15 10L16 10L16 9L17 9L17 8L18 8L18 5ZM9 6L9 7L10 7L10 6ZM11 6L11 7L12 7L12 9L13 9L13 8L14 8L14 6L13 6L13 7L12 7L12 6ZM10 8L10 9L11 9L11 8ZM25 9L25 11L26 11L26 9ZM6 10L6 11L7 11L7 10ZM12 11L12 13L13 13L13 11ZM2 12L2 13L3 13L3 12ZM15 12L15 14L14 14L14 15L12 15L12 17L11 17L11 18L9 18L9 16L10 16L10 15L9 15L9 16L8 16L8 17L5 17L5 16L7 16L7 15L6 15L6 14L7 14L7 13L4 13L4 14L2 14L2 15L3 15L3 17L4 17L4 18L7 18L7 19L6 19L6 20L7 20L7 19L8 19L8 20L9 20L9 21L10 21L10 20L9 20L9 19L11 19L11 22L13 22L13 23L12 23L12 25L15 25L15 24L17 24L17 27L14 27L14 28L18 28L18 27L19 27L19 28L20 28L20 27L19 27L19 26L20 26L20 24L18 24L18 23L17 23L17 21L14 21L14 20L15 20L15 19L14 19L14 20L13 20L13 21L12 21L12 19L13 19L13 18L12 18L12 17L14 17L14 18L17 18L17 20L18 20L18 22L19 22L19 23L20 23L20 22L19 22L19 21L20 21L20 19L21 19L21 20L22 20L22 19L23 19L23 20L27 20L27 19L26 19L26 18L27 18L27 17L25 17L25 19L23 19L23 18L22 18L22 17L24 17L24 16L25 16L25 15L24 15L24 16L23 16L23 15L21 15L21 16L20 16L20 17L21 17L21 18L17 18L17 17L19 17L19 15L20 15L20 14L19 14L19 13L18 13L18 14L17 14L17 13L16 13L16 12ZM8 13L8 14L9 14L9 13ZM4 14L4 16L5 16L5 14ZM15 14L15 15L14 15L14 16L15 16L15 17L17 17L17 14ZM18 14L18 15L19 15L19 14ZM21 16L21 17L22 17L22 16ZM21 18L21 19L22 19L22 18ZM21 21L21 24L24 24L24 21ZM28 21L28 22L29 22L29 21ZM9 22L9 23L10 23L10 24L9 24L9 25L10 25L10 24L11 24L11 23L10 23L10 22ZM15 22L15 23L14 23L14 24L15 24L15 23L16 23L16 22ZM22 22L22 23L23 23L23 22ZM25 22L25 23L26 23L26 24L27 24L27 23L26 23L26 22ZM18 25L18 26L19 26L19 25ZM24 25L24 26L25 26L25 25ZM26 25L26 28L27 28L27 25ZM0 0L0 7L7 7L7 0ZM1 1L1 6L6 6L6 1ZM2 2L2 5L5 5L5 2ZM29 0L22 0L22 7L29 7ZM28 1L23 1L23 6L28 6ZM27 2L24 2L24 5L27 5ZM0 29L7 29L7 22L0 22ZM1 28L6 28L6 23L1 23ZM2 27L5 27L5 24L2 24Z" fill="#000000"/></g></g></svg>
